<svg width="13" height="26" viewBox="0 0 13 26" fill="none" xmlns="http://www.w3.org/2000/svg">
<path d="M11.7997 0.578972C11.7854 0.424152 11.6482 0.309908 11.4938 0.327624C8.42633 0.679438 5.58841 2.13788 3.51548 4.43477C1.37961 6.8014 0.212234 9.88493 0.245305 13.0727C0.278376 16.2604 1.50948 19.3191 3.69399 21.6409C5.81412 23.8943 8.68169 25.2935 11.7558 25.5816C11.9106 25.5961 12.0453 25.4791 12.0564 25.324C12.0675 25.1689 11.9507 25.0345 11.7959 25.0199C8.86285 24.742 6.12731 23.4055 4.10405 21.2551C2.01642 19.0362 0.839918 16.1132 0.808313 13.0668C0.776708 10.0205 1.89231 7.07367 3.93346 4.812C5.91167 2.62007 8.61889 1.22714 11.5455 0.888421C11.7 0.870546 11.814 0.733793 11.7997 0.578972Z" fill="white"/>
</svg>
