<svg width="31" height="66" viewBox="0 0 31 66" fill="none" xmlns="http://www.w3.org/2000/svg">
<path d="M30.0055 1.28132C29.969 0.885003 29.6179 0.592556 29.2225 0.637907C21.3703 1.5385 14.1056 5.2719 8.79923 11.1516C3.33173 17.2098 0.343428 25.1032 0.428085 33.2633C0.512745 41.4235 3.66417 49.2532 9.25618 55.1966C14.6834 60.965 22.024 64.5468 29.8931 65.2843C30.2894 65.3215 30.6344 65.0218 30.6627 64.6248C30.6911 64.2278 30.3921 63.8839 29.9959 63.8463C22.4877 63.1349 15.4851 59.7137 10.3059 54.209C4.96187 48.5291 1.9502 41.0467 1.8693 33.2484C1.78839 25.4501 4.64418 17.9068 9.86921 12.1172C14.9331 6.50621 21.8632 2.94052 29.355 2.07346C29.7504 2.0277 30.0421 1.67764 30.0055 1.28132Z" fill="white"/>
</svg>
