<svg width="24" height="51" viewBox="0 0 24 51" fill="none" xmlns="http://www.w3.org/2000/svg">
<path d="M23.3937 1.08948C23.3653 0.781742 23.0927 0.554657 22.7857 0.589871C16.6884 1.28918 11.0474 4.18818 6.92699 8.75376C2.68146 13.458 0.361032 19.5872 0.426769 25.9236C0.492507 32.26 2.9396 38.3398 7.28181 42.9549C11.4961 47.434 17.196 50.2153 23.3065 50.788C23.6142 50.8168 23.882 50.5841 23.904 50.2759V50.2759C23.9261 49.9676 23.6939 49.7005 23.3862 49.6714C17.5561 49.1189 12.1186 46.4624 8.09691 42.188C3.94726 37.7775 1.6087 31.9674 1.54587 25.912C1.48305 19.8566 3.70057 13.9992 7.75783 9.50359C11.69 5.14663 17.0712 2.37785 22.8886 1.70458C23.1956 1.66905 23.4222 1.39722 23.3937 1.08948V1.08948Z" fill="white"/>
</svg>
