<svg width="29" height="29" viewBox="0 0 29 29" fill="none" xmlns="http://www.w3.org/2000/svg">
<g clip-path="url(#clip0_1_744)">
<path d="M15.708 1.20855C15.708 0.888084 15.8353 0.58074 16.0619 0.354133C16.2885 0.127527 16.5958 0.000220685 16.9163 0.000220685C20.1199 0.00373886 23.1913 1.27793 25.4566 3.54323C27.7219 5.80854 28.9961 8.87994 28.9996 12.0836C28.9996 12.404 28.8723 12.7114 28.6457 12.938C28.4191 13.1646 28.1118 13.2919 27.7913 13.2919C27.4708 13.2919 27.1635 13.1646 26.9369 12.938C26.7103 12.7114 26.583 12.404 26.583 12.0836C26.5801 9.52068 25.5607 7.0636 23.7485 5.25137C21.9363 3.43914 19.4792 2.41977 16.9163 2.41689C16.5958 2.41689 16.2885 2.28958 16.0619 2.06297C15.8353 1.83637 15.708 1.52902 15.708 1.20855ZM16.9163 7.25022C18.1982 7.25022 19.4276 7.75945 20.334 8.66587C21.2404 9.5723 21.7496 10.8017 21.7496 12.0836C21.7496 12.404 21.8769 12.7114 22.1035 12.938C22.3301 13.1646 22.6375 13.2919 22.958 13.2919C23.2784 13.2919 23.5858 13.1646 23.8124 12.938C24.039 12.7114 24.1663 12.404 24.1663 12.0836C24.1644 10.1613 23.3999 8.31837 22.0407 6.95915C20.6815 5.59993 18.8385 4.83547 16.9163 4.83355C16.5958 4.83355 16.2885 4.96086 16.0619 5.18747C15.8353 5.41407 15.708 5.72142 15.708 6.04189C15.708 6.36236 15.8353 6.6697 16.0619 6.89631C16.2885 7.12291 16.5958 7.25022 16.9163 7.25022ZM27.9037 20.2265C28.6039 20.9287 28.9971 21.8799 28.9971 22.8716C28.9971 23.8632 28.6039 24.8144 27.9037 25.5166L26.8041 26.7841C16.9078 36.2587 -7.17421 12.1826 2.15411 2.25497L3.54369 1.04664C4.24666 0.365956 5.18936 -0.010595 6.16783 -0.00154971C7.14631 0.00749558 8.08188 0.40141 8.77215 1.09497C8.80961 1.13243 11.0486 4.04089 11.0486 4.04089C11.713 4.73885 12.0829 5.66601 12.0813 6.62962C12.0797 7.59324 11.7068 8.51918 11.0402 9.21497L9.64094 10.9743C10.4153 12.8558 11.5538 14.5658 12.991 16.0059C14.4283 17.4461 16.1359 18.588 18.0159 19.3662L19.7861 17.9585C20.482 17.2923 21.4077 16.9199 22.3711 16.9186C23.3344 16.9172 24.2612 17.287 24.959 17.9512C24.959 17.9512 27.8662 20.1891 27.9037 20.2265ZM26.241 21.9834C26.241 21.9834 23.3495 19.7589 23.312 19.7214C23.0631 19.4746 22.7267 19.3361 22.3762 19.3361C22.0256 19.3361 21.6892 19.4746 21.4403 19.7214C21.4077 19.7553 18.9705 21.6971 18.9705 21.6971C18.8062 21.8278 18.6108 21.9135 18.4033 21.9457C18.1959 21.9779 17.9837 21.9555 17.7875 21.8807C15.3521 20.974 13.1399 19.5544 11.301 17.7181C9.46202 15.8819 8.03918 13.6718 7.12882 11.2377C7.0481 11.0389 7.02178 10.8222 7.05257 10.6098C7.08337 10.3974 7.17016 10.1971 7.30402 10.0294C7.30402 10.0294 9.24581 7.59097 9.27844 7.55955C9.52526 7.31062 9.66375 6.97426 9.66375 6.6237C9.66375 6.27314 9.52526 5.93678 9.27844 5.68785C9.24098 5.6516 7.01644 2.75764 7.01644 2.75764C6.76378 2.53108 6.43403 2.40975 6.09478 2.41851C5.75554 2.42728 5.43249 2.56547 5.19186 2.80476L3.80228 4.0131C-3.01513 12.2104 17.854 31.922 25.0375 25.1336L26.1383 23.8648C26.3962 23.6259 26.5512 23.296 26.5704 22.9449C26.5895 22.5938 26.4714 22.249 26.241 21.9834Z" fill="black"/>
</g>
<defs>
<clipPath id="clip0_1_744">
<rect width="29" height="29" fill="white"/>
</clipPath>
</defs>
</svg>
