<svg width="27" height="27" viewBox="0 0 27 27" fill="none" xmlns="http://www.w3.org/2000/svg">
<g clip-path="url(#clip0_1_527)">
<path d="M14.625 1.12509C14.625 0.826719 14.7435 0.540571 14.9545 0.329592C15.1655 0.118614 15.4516 8.76043e-05 15.75 8.76043e-05C18.7326 0.00336315 21.5922 1.18968 23.7013 3.29875C25.8104 5.40783 26.9967 8.26741 27 11.2501C27 11.5485 26.8814 11.8346 26.6704 12.0456C26.4595 12.2566 26.1733 12.3751 25.875 12.3751C25.5766 12.3751 25.2904 12.2566 25.0795 12.0456C24.8685 11.8346 24.75 11.5485 24.75 11.2501C24.7473 8.86396 23.7982 6.57633 22.111 4.88909C20.4237 3.20184 18.1361 2.25277 15.75 2.25009C15.4516 2.25009 15.1655 2.13156 14.9545 1.92058C14.7435 1.7096 14.625 1.42346 14.625 1.12509ZM15.75 6.75009C16.9434 6.75009 18.088 7.22419 18.9319 8.06811C19.7759 8.91202 20.25 10.0566 20.25 11.2501C20.25 11.5485 20.3685 11.8346 20.5795 12.0456C20.7904 12.2566 21.0766 12.3751 21.375 12.3751C21.6733 12.3751 21.9595 12.2566 22.1705 12.0456C22.3814 11.8346 22.5 11.5485 22.5 11.2501C22.4982 9.46043 21.7864 7.74457 20.521 6.47909C19.2555 5.21361 17.5396 4.50187 15.75 4.50009C15.4516 4.50009 15.1655 4.61861 14.9545 4.82959C14.7435 5.04057 14.625 5.32672 14.625 5.62509C14.625 5.92346 14.7435 6.2096 14.9545 6.42058C15.1655 6.63156 15.4516 6.75009 15.75 6.75009ZM25.9796 18.8315C26.6315 19.4852 26.9976 20.3708 26.9976 21.2941C26.9976 22.2174 26.6315 23.103 25.9796 23.7567L24.9558 24.9368C15.7421 33.758 -6.67913 11.3423 2.00586 2.09934L3.29961 0.974338C3.95409 0.340599 4.83178 -0.00998218 5.74277 -0.0015607C6.65376 0.00686078 7.52481 0.373608 8.16747 1.01934C8.20235 1.05421 10.287 3.76209 10.287 3.76209C10.9055 4.41192 11.2499 5.27513 11.2484 6.17229C11.2469 7.06945 10.8998 7.93153 10.2791 8.57934L8.97635 10.2173C9.6973 11.9691 10.7573 13.5611 12.0954 14.9019C13.4335 16.2428 15.0234 17.306 16.7737 18.0305L18.4218 16.7198C19.0697 16.0996 19.9317 15.7529 20.8285 15.7516C21.7254 15.7504 22.5883 16.0947 23.238 16.7131C23.238 16.7131 25.9447 18.7966 25.9796 18.8315ZM24.4316 20.4672C24.4316 20.4672 21.7395 18.3961 21.7046 18.3612C21.4728 18.1314 21.1597 18.0025 20.8333 18.0025C20.5069 18.0025 20.1937 18.1314 19.962 18.3612C19.9316 18.3927 17.6625 20.2006 17.6625 20.2006C17.5096 20.3223 17.3276 20.4021 17.1344 20.4321C16.9413 20.4621 16.7437 20.4412 16.5611 20.3716C14.2936 19.5274 12.234 18.2057 10.5219 16.4961C8.80977 14.7864 7.48505 12.7288 6.63748 10.4626C6.56232 10.2775 6.53782 10.0757 6.56649 9.87797C6.59516 9.68025 6.67597 9.49373 6.8006 9.33759C6.8006 9.33759 8.60847 7.06734 8.63885 7.03809C8.86865 6.80632 8.99759 6.49316 8.99759 6.16678C8.99759 5.84039 8.86865 5.52723 8.63885 5.29546C8.60397 5.26171 6.53285 2.56734 6.53285 2.56734C6.29761 2.35641 5.99061 2.24344 5.67476 2.2516C5.35891 2.25976 5.05814 2.38842 4.8341 2.61121L3.54035 3.73621C-2.80689 11.3682 16.623 29.7203 23.3111 23.4001L24.336 22.2188C24.5761 21.9964 24.7204 21.6893 24.7382 21.3624C24.7561 21.0355 24.6461 20.7145 24.4316 20.4672Z" fill="#C49E5E"/>
</g>
<defs>
<clipPath id="clip0_1_527">
<rect width="27" height="27" fill="white"/>
</clipPath>
</defs>
</svg>
