<svg width="29" height="26" viewBox="0 0 29 26" fill="none" xmlns="http://www.w3.org/2000/svg">
<mask id="mask0_1_746" style="mask-type:luminance" maskUnits="userSpaceOnUse" x="0" y="0" width="29" height="26">
<path d="M0 0.531006H29V25.4233H0V0.531006Z" fill="white"/>
</mask>
<g mask="url(#mask0_1_746)">
<path d="M14.5053 1.71905C7.27115 1.71905 1.38505 6.77076 1.38505 12.9802C1.38505 19.1897 7.27115 24.242 14.5053 24.242C21.7394 24.242 27.6248 19.1897 27.6248 12.9802C27.6248 6.77076 21.7394 1.71905 14.5053 1.71905ZM14.5053 25.4309C6.50688 25.4309 0 19.8457 0 12.9802C0 6.11475 6.50688 0.529541 14.5053 0.529541C22.5029 0.529541 29.0091 6.11475 29.0091 12.9802C29.0091 19.8457 22.5029 25.4309 14.5053 25.4309Z" fill="black"/>
</g>
<path d="M18.5129 17.015C18.3354 17.015 18.1587 16.9573 18.0235 16.8406L14.0157 13.4011C13.8858 13.2889 13.8125 13.1385 13.8125 12.9804V6.06627C13.8125 5.73762 14.1229 5.47119 14.5058 5.47119C14.8879 5.47119 15.1976 5.73762 15.1976 6.06627V12.7347L19.0023 16.0005C19.2734 16.2326 19.2734 16.6092 19.0023 16.8406C18.8664 16.9573 18.6896 17.015 18.5129 17.015Z" fill="black"/>
<path d="M20.7676 4.85724L20.8839 4.68481C21.075 4.40088 20.9617 4.03722 20.6309 3.87322C20.2986 3.70857 19.875 3.80645 19.6839 4.09102L19.5676 4.26475C19.3765 4.54868 19.4906 4.91169 19.8221 5.07634C19.9308 5.13015 20.0502 5.15543 20.1672 5.15543C20.4066 5.15543 20.64 5.04847 20.7676 4.85724ZM9.32546 21.8696L9.44176 21.6971C9.63283 21.4132 9.51954 21.0495 9.18725 20.8849C8.85572 20.7209 8.43204 20.8181 8.24173 21.102L8.12619 21.2758C7.93436 21.5604 8.0484 21.924 8.37994 22.0874C8.48793 22.1412 8.60801 22.1671 8.72431 22.1671C8.96447 22.1671 9.19707 22.0608 9.32546 21.8696ZM24.6607 8.63451L24.8616 8.53404C25.1924 8.37068 25.3057 8.00702 25.1154 7.72245C24.9235 7.43852 24.4999 7.34128 24.1683 7.50529L23.9674 7.60511C23.6359 7.76847 23.5234 8.13213 23.7137 8.41671C23.8421 8.60794 24.0747 8.7136 24.3148 8.7136C24.4319 8.7136 24.5512 8.68832 24.6607 8.63451ZM4.84103 18.4559L5.04191 18.3555C5.3727 18.1921 5.48749 17.8285 5.29566 17.5439C5.1046 17.2587 4.68017 17.1627 4.35014 17.3267L4.1485 17.4265C3.81772 17.5912 3.70368 17.9549 3.89551 18.2394C4.02314 18.4294 4.2565 18.5363 4.4959 18.5363C4.61371 18.5363 4.73228 18.5097 4.84103 18.4559ZM26.7557 12.9803C26.7557 12.6523 26.4468 12.3865 26.0639 12.3865H25.8313C25.4484 12.3865 25.1388 12.6523 25.1388 12.9803C25.1388 13.3089 25.4484 13.5741 25.8313 13.5741H26.0639C26.4468 13.5741 26.7557 13.3089 26.7557 12.9803ZM3.87134 12.9803C3.87134 12.6523 3.56095 12.3865 3.17806 12.3865H2.94621C2.56408 12.3865 2.25293 12.6523 2.25293 12.9803C2.25293 13.3089 2.56408 13.5741 2.94621 13.5741H3.17806C3.56095 13.5741 3.87134 13.3089 3.87134 12.9803ZM25.1154 18.2394C25.3057 17.9549 25.1924 17.5912 24.8616 17.4265L24.6607 17.3267C24.3292 17.1627 23.9055 17.2599 23.7137 17.5439C23.5234 17.8285 23.6359 18.1921 23.9674 18.3555L24.1683 18.4559C24.2771 18.5097 24.3964 18.5363 24.5142 18.5363C24.7529 18.5363 24.9862 18.4294 25.1154 18.2394ZM5.29566 8.41671C5.48749 8.13213 5.3727 7.76847 5.04191 7.60511L4.84103 7.50529C4.50949 7.34128 4.08582 7.43852 3.89551 7.72245C3.70368 8.00702 3.81772 8.37068 4.1485 8.53404L4.35014 8.63451C4.45814 8.68832 4.57822 8.7136 4.69452 8.7136C4.93467 8.7136 5.16728 8.60794 5.29566 8.41671ZM20.6309 22.0874C20.9617 21.924 21.075 21.5604 20.8839 21.2758L20.7676 21.102C20.5765 20.8181 20.1529 20.7209 19.8221 20.8849C19.4906 21.0495 19.3765 21.4132 19.5683 21.6971L19.6854 21.8696C19.813 22.0608 20.0456 22.1671 20.2843 22.1671C20.4021 22.1671 20.5207 22.1412 20.6309 22.0874ZM9.18725 5.07634C9.51954 4.91169 9.63283 4.54868 9.44176 4.26475L9.32546 4.09102C9.13363 3.80645 8.70996 3.70857 8.37994 3.87322C8.0484 4.03722 7.93436 4.40088 8.12543 4.68481L8.24173 4.85724C8.36936 5.04847 8.60272 5.15543 8.84212 5.15543C8.95994 5.15543 9.0785 5.13015 9.18725 5.07634ZM15.1972 22.9022V22.7019C15.1972 22.3745 14.8876 22.1081 14.5054 22.1081C14.1225 22.1081 13.8121 22.3745 13.8121 22.7019V22.9022C13.8121 23.2302 14.1225 23.496 14.5054 23.496C14.8876 23.496 15.1972 23.2302 15.1972 22.9022ZM14.5054 3.85247C14.1225 3.85247 13.8121 3.58735 13.8121 3.25869V3.05903C13.8121 2.73038 14.1225 2.4646 14.5054 2.4646C14.8876 2.4646 15.1972 2.73038 15.1972 3.05903V3.25869C15.1972 3.58735 14.8876 3.85247 14.5054 3.85247Z" fill="black"/>
</svg>
