<svg width="12" height="12" viewBox="0 0 12 12" fill="none" xmlns="http://www.w3.org/2000/svg">
<path fill-rule="evenodd" clip-rule="evenodd" d="M11.1793 1.70711C11.5698 1.31658 11.5698 0.683418 11.1793 0.292893C10.7888 -0.0976311 10.1556 -0.0976311 9.7651 0.292893L5.88888 4.16911L2.01266 0.292893C1.62214 -0.0976311 0.988974 -0.0976311 0.598449 0.292893C0.207925 0.683417 0.207925 1.31658 0.598449 1.70711L4.47467 5.58333L0.292893 9.7651C-0.097631 10.1556 -0.097631 10.7888 0.292893 11.1793C0.683418 11.5698 1.31658 11.5698 1.70711 11.1793L5.88888 6.99754L10.0707 11.1793C10.4612 11.5698 11.0943 11.5698 11.4849 11.1793C11.8754 10.7888 11.8754 10.1556 11.4849 9.7651L7.3031 5.58333L11.1793 1.70711Z" fill="#7E7E7E"/>
</svg>
