<svg width="54" height="52" viewBox="0 0 54 52" fill="none" xmlns="http://www.w3.org/2000/svg">
<path d="M9.62988 2.348H10.3159C11.8839 2.348 12.5839 3.244 12.5839 4.798V7.472C12.5839 9.026 11.8839 9.922 10.3159 9.922H9.62988V11H8.55188V9.922H7.86588C6.29788 9.922 5.59788 9.026 5.59788 7.472V4.798C5.59788 3.244 6.29788 2.348 7.86588 2.348H8.55188V1.2H9.62988V2.348ZM8.55188 3.314H7.86588C7.03988 3.314 6.67588 3.79 6.67588 4.728V7.542C6.67588 8.48 7.03988 8.97 7.86588 8.97H8.55188V3.314ZM9.62988 8.97H10.3159C11.1419 8.97 11.5199 8.48 11.5199 7.542V4.728C11.5199 3.79 11.1559 3.314 10.3159 3.314H9.62988V8.97ZM17.7126 3.202L16.6486 6.478L15.2066 11H14.0726V1.2H15.0386V8.508L15.9066 5.806L17.4746 1.2H18.6926V11H17.7126V3.202ZM24.1831 2.194H22.3071L22.0831 8.564C22.0271 10.118 21.6071 11 20.1091 11.014H19.9271V10.02C20.8371 10.02 20.9911 9.558 21.0191 8.62L21.2851 1.2H25.2751V11H24.1831V2.194ZM27.9538 5.064H28.9198C30.4738 5.064 31.2018 5.876 31.2018 7.43V8.606C31.2018 10.09 30.5298 11 29.0038 11H26.8618V1.2H27.9538V5.064ZM27.9538 10.006H29.0038C29.8018 10.006 30.1238 9.558 30.1238 8.662V7.36C30.1238 6.408 29.7318 6.044 28.9198 6.044H27.9538V10.006ZM35.2038 11H34.1118V2.194H32.3058V1.2H37.0098V2.194H35.2038V11ZM38.2428 1.2H40.3848C41.9248 1.2 42.5828 2.11 42.5828 3.594V4.77C42.5828 6.324 41.8548 7.136 40.3008 7.136H39.3348V11H38.2428V1.2ZM39.3348 6.156H40.3008C41.1128 6.156 41.5048 5.778 41.5048 4.84V3.538C41.5048 2.642 41.1828 2.194 40.3848 2.194H39.3348V6.156Z" fill="black"/>
<g filter="url(#filter0_d_2003_2908)">
<path d="M0 15H45C47.7614 15 50 17.2386 50 20V42.0813C50 44.8427 47.7614 47.0813 45 47.0813H0V15Z" fill="white"/>
</g>
<mask id="mask0_2003_2908" style="mask-type:luminance" maskUnits="userSpaceOnUse" x="13" y="22" width="24" height="6">
<path d="M13.001 22H36.6121V27.8228H13.001V22Z" fill="white"/>
</mask>
<g mask="url(#mask0_2003_2908)">
<path d="M35.8244 24.1802H21.5463C21.5252 24.103 21.5005 24.0268 21.4723 23.9514C21.4441 23.8761 21.4128 23.8017 21.378 23.7287C21.3433 23.6557 21.3052 23.5843 21.2642 23.5141C21.2229 23.444 21.1788 23.3757 21.1315 23.309C21.0843 23.2423 21.0339 23.1774 20.9809 23.1147C20.928 23.0519 20.8722 22.991 20.8136 22.9324C20.7552 22.8738 20.694 22.8176 20.6305 22.7635C20.567 22.7097 20.501 22.6582 20.433 22.6091C20.3649 22.5602 20.2946 22.514 20.2223 22.4704C20.15 22.4268 20.076 22.3861 20 22.3483C19.924 22.3102 19.8466 22.2752 19.7674 22.2432C19.6886 22.2114 19.608 22.1823 19.5266 22.1565C19.4449 22.1305 19.3621 22.1079 19.2787 22.0885C19.195 22.0688 19.1104 22.0525 19.0253 22.0394C18.9402 22.0263 18.8545 22.0165 18.7685 22.01C18.6826 22.0034 18.5963 22 18.5101 22C18.4238 22 18.3376 22.0034 18.2516 22.01C18.1656 22.0165 18.0799 22.0263 17.9948 22.0394C17.9097 22.0525 17.8252 22.0688 17.7415 22.0885C17.6581 22.1079 17.5752 22.1305 17.4935 22.1565C17.4121 22.1823 17.3316 22.2114 17.2527 22.2432C17.1736 22.2752 17.0961 22.3102 17.0201 22.3483C16.9441 22.3861 16.8701 22.4268 16.7978 22.4704C16.7255 22.514 16.6552 22.5602 16.5872 22.6091C16.5191 22.6582 16.4531 22.7097 16.3896 22.7635C16.3261 22.8176 16.2649 22.8738 16.2066 22.9324C16.1479 22.991 16.0921 23.0519 16.0392 23.1147C15.9862 23.1774 15.9359 23.2423 15.8886 23.309C15.8413 23.3757 15.7972 23.444 15.7559 23.5141C15.715 23.5843 15.6768 23.6557 15.6421 23.7287C15.6074 23.8017 15.576 23.8761 15.5479 23.9514C15.5197 24.0268 15.4949 24.103 15.4738 24.1802H13.7878C13.7363 24.1802 13.685 24.1849 13.6344 24.1944C13.5837 24.2036 13.5344 24.2175 13.4866 24.2356C13.4391 24.254 13.3935 24.2763 13.3505 24.3028C13.3078 24.3294 13.268 24.3596 13.2316 24.3932C13.1948 24.4271 13.1624 24.4636 13.1336 24.5035C13.1049 24.5432 13.0807 24.5849 13.0608 24.6291C13.0411 24.6732 13.026 24.7186 13.0161 24.7654C13.0058 24.8124 13.001 24.8597 13.001 24.9072C13.001 24.955 13.0058 25.0023 13.0161 25.049C13.026 25.096 13.0411 25.1415 13.0608 25.1856C13.0807 25.2297 13.1049 25.2715 13.1336 25.3111C13.1624 25.3508 13.1948 25.3876 13.2316 25.4214C13.268 25.4551 13.3078 25.4853 13.3505 25.5118C13.3935 25.5383 13.4391 25.5606 13.4866 25.579C13.5344 25.5972 13.5837 25.6111 13.6344 25.6203C13.685 25.6297 13.7363 25.6342 13.7878 25.6342H15.4738C15.4949 25.7117 15.5197 25.7878 15.5479 25.8632C15.576 25.9386 15.6074 26.0129 15.6421 26.0859C15.6768 26.1587 15.715 26.2304 15.7559 26.3005C15.7972 26.3704 15.8413 26.4389 15.8886 26.5056C15.9359 26.5723 15.9862 26.637 16.0392 26.7C16.0921 26.7628 16.1479 26.8237 16.2066 26.8823C16.2649 26.9408 16.3261 26.997 16.3896 27.0511C16.4531 27.105 16.5191 27.1565 16.5872 27.2053C16.6552 27.2544 16.7255 27.3007 16.7978 27.3443C16.8701 27.3878 16.9441 27.4286 17.0201 27.4664C17.0961 27.5042 17.1736 27.5394 17.2527 27.5712C17.3316 27.6032 17.4121 27.6321 17.4935 27.6581C17.5752 27.6838 17.6581 27.7067 17.7415 27.7261C17.8252 27.7458 17.9097 27.7621 17.9948 27.7752C18.0799 27.7884 18.1656 27.7981 18.2516 27.8047C18.3376 27.8112 18.4238 27.8146 18.5101 27.8146C18.5963 27.8146 18.6826 27.8112 18.7685 27.8047C18.8545 27.7981 18.9402 27.7884 19.0253 27.7752C19.1104 27.7621 19.195 27.7458 19.2787 27.7261C19.3621 27.7067 19.4449 27.6838 19.5266 27.6581C19.608 27.6321 19.6886 27.6032 19.7674 27.5712C19.8466 27.5394 19.924 27.5042 20 27.4664C20.076 27.4286 20.15 27.3878 20.2223 27.3443C20.2946 27.3007 20.3649 27.2544 20.433 27.2053C20.501 27.1565 20.567 27.105 20.6305 27.0511C20.694 26.997 20.7552 26.9408 20.8136 26.8823C20.8722 26.8237 20.928 26.7628 20.9809 26.7C21.0339 26.637 21.0843 26.5723 21.1315 26.5056C21.1788 26.4389 21.2229 26.3704 21.2642 26.3005C21.3052 26.2304 21.3433 26.1587 21.378 26.0859C21.4128 26.0129 21.4441 25.9386 21.4723 25.8632C21.5005 25.7878 21.5252 25.7117 21.5463 25.6342H35.8244C35.8762 25.6342 35.9275 25.6297 35.9781 25.6203C36.0288 25.6111 36.0781 25.5972 36.1259 25.579C36.1734 25.5606 36.219 25.5383 36.2617 25.5118C36.3047 25.4853 36.3445 25.4551 36.3809 25.4214C36.4177 25.3876 36.4501 25.3508 36.4789 25.3111C36.5076 25.2715 36.5318 25.2297 36.5517 25.1856C36.5714 25.1415 36.5865 25.096 36.5964 25.049C36.6067 25.0023 36.6115 24.955 36.6115 24.9072C36.6115 24.8597 36.6067 24.8124 36.5964 24.7654C36.5865 24.7186 36.5714 24.6732 36.5517 24.6291C36.5318 24.5849 36.5076 24.5432 36.4789 24.5035C36.4501 24.4636 36.4177 24.4271 36.3809 24.3932C36.3445 24.3596 36.3047 24.3294 36.2617 24.3028C36.219 24.2763 36.1734 24.254 36.1259 24.2356C36.0781 24.2175 36.0288 24.2036 35.9781 24.1944C35.9275 24.1849 35.8762 24.1802 35.8244 24.1802ZM18.5101 26.3612C18.4585 26.3612 18.407 26.3591 18.3558 26.3544C18.3045 26.3496 18.2536 26.3425 18.2029 26.3333C18.1525 26.3241 18.1024 26.3126 18.0532 26.2987C18.0039 26.2848 17.9553 26.2687 17.9077 26.2506C17.8602 26.2325 17.8135 26.212 17.7679 26.1897C17.7227 26.1671 17.6786 26.1427 17.6356 26.1161C17.5926 26.0899 17.5513 26.0615 17.5115 26.0313C17.4716 26.0011 17.4335 25.9691 17.397 25.9354C17.3606 25.9018 17.3262 25.8666 17.2934 25.8296C17.2607 25.7928 17.2299 25.7547 17.2012 25.7151C17.1727 25.6754 17.1462 25.6347 17.1218 25.5927C17.0976 25.5507 17.0756 25.5076 17.0557 25.4637C17.0361 25.4196 17.0187 25.375 17.0039 25.3293C16.9888 25.2838 16.9763 25.2376 16.9663 25.1908C16.9561 25.1444 16.9487 25.0971 16.9436 25.0498C16.9384 25.0025 16.9359 24.955 16.9359 24.9072C16.9359 24.8597 16.9384 24.8121 16.9436 24.7648C16.9487 24.7173 16.9561 24.6703 16.9663 24.6235C16.9763 24.577 16.9888 24.5308 17.0039 24.4851C17.0187 24.4397 17.0361 24.3948 17.0557 24.3509C17.0756 24.3068 17.0976 24.264 17.1218 24.222C17.1462 24.1799 17.1727 24.1392 17.2012 24.0996C17.2299 24.0599 17.2607 24.0218 17.2934 23.9848C17.3262 23.948 17.3606 23.9128 17.397 23.8792C17.4335 23.8456 17.4716 23.8135 17.5115 23.7833C17.5513 23.7531 17.5926 23.7248 17.6356 23.6982C17.6786 23.672 17.7227 23.6476 17.7679 23.625C17.8135 23.6026 17.8602 23.5822 17.9077 23.564C17.9553 23.5457 18.0039 23.5296 18.0532 23.516C18.1024 23.5021 18.1525 23.4905 18.2029 23.4813C18.2536 23.4718 18.3045 23.465 18.3558 23.4603C18.407 23.4556 18.4585 23.4532 18.5101 23.4532C18.5616 23.4532 18.6131 23.4556 18.6644 23.4603C18.7156 23.465 18.7665 23.4718 18.8172 23.4813C18.8676 23.4905 18.9177 23.5021 18.9669 23.516C19.0162 23.5296 19.0649 23.5457 19.1124 23.564C19.16 23.5822 19.2066 23.6026 19.2522 23.625C19.2974 23.6476 19.3416 23.672 19.3846 23.6982C19.4275 23.7248 19.4688 23.7531 19.5087 23.7833C19.5485 23.8135 19.5867 23.8456 19.6231 23.8792C19.6595 23.9128 19.694 23.948 19.7267 23.9848C19.7595 24.0218 19.7902 24.0599 19.8189 24.0996C19.8474 24.1392 19.8739 24.1799 19.8984 24.222C19.9226 24.264 19.9445 24.3068 19.9644 24.3509C19.9841 24.3948 20.0014 24.4397 20.0162 24.4851C20.0313 24.5308 20.0438 24.577 20.0538 24.6235C20.064 24.6703 20.0714 24.7173 20.0766 24.7648C20.0817 24.8121 20.084 24.8597 20.084 24.9072C20.084 24.955 20.0817 25.0025 20.0766 25.0498C20.0714 25.0971 20.064 25.1444 20.0538 25.1908C20.0438 25.2376 20.0313 25.2838 20.0162 25.3293C20.0014 25.375 19.9841 25.4196 19.9644 25.4637C19.9445 25.5076 19.9226 25.5507 19.8984 25.5927C19.8739 25.6347 19.8474 25.6754 19.8189 25.7151C19.7902 25.7547 19.7595 25.7928 19.7267 25.8296C19.694 25.8666 19.6595 25.9018 19.6231 25.9354C19.5867 25.9691 19.5485 26.0011 19.5087 26.0313C19.4688 26.0615 19.4275 26.0899 19.3846 26.1161C19.3416 26.1427 19.2974 26.1671 19.2522 26.1897C19.2066 26.212 19.16 26.2325 19.1124 26.2506C19.0649 26.2687 19.0162 26.2848 18.9669 26.2987C18.9177 26.3126 18.8676 26.3241 18.8172 26.3333C18.7665 26.3425 18.7156 26.3496 18.6644 26.3544C18.6131 26.3591 18.5616 26.3612 18.5101 26.3612Z" fill="black"/>
</g>
<mask id="mask1_2003_2908" style="mask-type:luminance" maskUnits="userSpaceOnUse" x="13" y="33" width="24" height="7">
<path d="M13.001 33.6021H36.6121V39.4448H13.001V33.6021Z" fill="white"/>
</mask>
<g mask="url(#mask1_2003_2908)">
<path d="M35.8244 35.8145H25.4815C25.4601 35.7373 25.4356 35.6611 25.4075 35.5857C25.3793 35.5103 25.348 35.436 25.3129 35.363C25.2782 35.29 25.2404 35.2185 25.1994 35.1484C25.1581 35.0783 25.114 35.01 25.0667 34.9433C25.0192 34.8766 24.9691 34.8117 24.9161 34.7489C24.8629 34.6862 24.8071 34.6252 24.7487 34.5667C24.6901 34.5081 24.6292 34.4519 24.5657 34.3978C24.5019 34.3439 24.4362 34.2925 24.3682 34.2433C24.2998 34.1945 24.2298 34.1483 24.1575 34.1047C24.0852 34.0611 24.0112 34.0204 23.9352 33.9825C23.8592 33.9445 23.7817 33.9095 23.7026 33.8775C23.6235 33.8457 23.5432 33.8166 23.4615 33.7908C23.3801 33.7648 23.2972 33.7422 23.2136 33.7228C23.1299 33.7031 23.0456 33.6868 22.9605 33.6737C22.8754 33.6605 22.7897 33.6508 22.7037 33.6443C22.6178 33.6377 22.5315 33.6343 22.4453 33.6343C22.359 33.6343 22.2727 33.6377 22.1868 33.6443C22.1005 33.6508 22.0151 33.6605 21.93 33.6737C21.8449 33.6868 21.7604 33.7031 21.6767 33.7228C21.593 33.7422 21.5104 33.7648 21.4287 33.7908C21.347 33.8166 21.2667 33.8457 21.1876 33.8775C21.1088 33.9095 21.031 33.9445 20.9553 33.9825C20.8793 34.0204 20.8053 34.0611 20.733 34.1047C20.6607 34.1483 20.5904 34.1945 20.5223 34.2433C20.454 34.2925 20.3883 34.3439 20.3248 34.3978C20.2613 34.4519 20.2001 34.5081 20.1418 34.5667C20.0831 34.6252 20.0273 34.6862 19.9744 34.7489C19.9211 34.8117 19.871 34.8766 19.8238 34.9433C19.7765 35.01 19.7324 35.0783 19.6911 35.1484C19.6499 35.2185 19.612 35.29 19.5773 35.363C19.5425 35.436 19.5109 35.5103 19.483 35.5857C19.4549 35.6611 19.4301 35.7373 19.4087 35.8145H13.7878C13.7363 35.8145 13.685 35.8192 13.6344 35.8287C13.5837 35.8378 13.5344 35.8518 13.4866 35.8699C13.4391 35.8883 13.3935 35.9106 13.3505 35.9371C13.3078 35.9637 13.268 35.9939 13.2316 36.0275C13.1948 36.0614 13.1624 36.0979 13.1336 36.1378C13.1049 36.1774 13.0807 36.2192 13.0608 36.2633C13.0411 36.3075 13.026 36.3529 13.0161 36.3996C13.0058 36.4467 13.001 36.4939 13.001 36.5415C13.001 36.5893 13.0058 36.6365 13.0161 36.6833C13.026 36.7303 13.0411 36.7757 13.0608 36.8199C13.0807 36.864 13.1049 36.9058 13.1336 36.9454C13.1624 36.9851 13.1948 37.0218 13.2316 37.0557C13.268 37.0893 13.3078 37.1195 13.3505 37.1461C13.3935 37.1726 13.4391 37.1949 13.4866 37.2133C13.5344 37.2314 13.5837 37.2453 13.6344 37.2545C13.685 37.264 13.7363 37.2685 13.7878 37.2685H19.4087C19.4301 37.3459 19.4549 37.4221 19.483 37.4975C19.5109 37.5729 19.5425 37.6472 19.5773 37.7199C19.612 37.793 19.6499 37.8647 19.6911 37.9348C19.7324 38.0046 19.7765 38.0732 19.8238 38.1399C19.871 38.2066 19.9211 38.2712 19.9744 38.3343C20.0273 38.397 20.0831 38.458 20.1418 38.5165C20.2001 38.5751 20.2613 38.6313 20.3248 38.6854C20.3883 38.7393 20.454 38.7907 20.5223 38.8396C20.5904 38.8887 20.6607 38.9349 20.733 38.9785C20.8053 39.0221 20.8793 39.0628 20.9553 39.1007C21.031 39.1385 21.1088 39.1737 21.1876 39.2055C21.2667 39.2375 21.347 39.2664 21.4287 39.2924C21.5104 39.3181 21.593 39.341 21.6767 39.3604C21.7604 39.3801 21.8449 39.3964 21.93 39.4095C22.0151 39.4227 22.1005 39.4324 22.1868 39.4389C22.2727 39.4455 22.359 39.4489 22.4453 39.4489C22.5315 39.4489 22.6178 39.4455 22.7037 39.4389C22.7897 39.4324 22.8754 39.4227 22.9605 39.4095C23.0456 39.3964 23.1299 39.3801 23.2136 39.3604C23.2972 39.341 23.3801 39.3181 23.4615 39.2924C23.5432 39.2664 23.6235 39.2375 23.7026 39.2055C23.7817 39.1737 23.8592 39.1385 23.9352 39.1007C24.0112 39.0628 24.0852 39.0221 24.1575 38.9785C24.2298 38.9349 24.2998 38.8887 24.3682 38.8396C24.4362 38.7907 24.5019 38.7393 24.5657 38.6854C24.6292 38.6313 24.6901 38.5751 24.7487 38.5165C24.8071 38.458 24.8629 38.397 24.9161 38.3343C24.9691 38.2712 25.0192 38.2066 25.0667 38.1399C25.114 38.0732 25.1581 38.0046 25.1994 37.9348C25.2404 37.8647 25.2782 37.793 25.3129 37.7199C25.348 37.6472 25.3793 37.5729 25.4075 37.4975C25.4356 37.4221 25.4601 37.3459 25.4815 37.2685H35.8244C35.8762 37.2685 35.9275 37.264 35.9781 37.2545C36.0288 37.2453 36.0781 37.2314 36.1259 37.2133C36.1734 37.1949 36.219 37.1726 36.2617 37.1461C36.3047 37.1195 36.3445 37.0893 36.3809 37.0557C36.4177 37.0218 36.4501 36.9851 36.4789 36.9454C36.5076 36.9058 36.5318 36.864 36.5517 36.8199C36.5714 36.7757 36.5865 36.7303 36.5964 36.6833C36.6067 36.6365 36.6115 36.5893 36.6115 36.5415C36.6115 36.4939 36.6067 36.4467 36.5964 36.3996C36.5865 36.3529 36.5714 36.3075 36.5517 36.2633C36.5318 36.2192 36.5076 36.1774 36.4789 36.1378C36.4501 36.0979 36.4177 36.0614 36.3809 36.0275C36.3445 35.9939 36.3047 35.9637 36.2617 35.9371C36.219 35.9106 36.1734 35.8883 36.1259 35.8699C36.0781 35.8518 36.0288 35.8378 35.9781 35.8287C35.9275 35.8192 35.8762 35.8145 35.8244 35.8145ZM22.4453 37.9955C22.3937 37.9955 22.3422 37.9934 22.291 37.9886C22.2397 37.9839 22.1888 37.9768 22.1381 37.9676C22.0874 37.9584 22.0376 37.9469 21.9884 37.9329C21.9388 37.919 21.8904 37.903 21.8429 37.8849C21.7951 37.8668 21.7487 37.8463 21.7031 37.824C21.6576 37.8014 21.6135 37.7769 21.5708 37.7504C21.5278 37.7241 21.4865 37.6958 21.4467 37.6656C21.4068 37.6354 21.3687 37.6033 21.3322 37.5697C21.2958 37.5361 21.2611 37.5009 21.2283 37.4639C21.1956 37.4271 21.1651 37.389 21.1364 37.3494C21.1079 37.3097 21.0814 37.269 21.0569 37.227C21.0328 37.1849 21.0105 37.1419 20.9909 37.098C20.9713 37.0539 20.9539 37.0092 20.9388 36.9635C20.924 36.9181 20.9115 36.8719 20.9012 36.8251C20.8913 36.7786 20.8839 36.7314 20.8787 36.6841C20.8736 36.6368 20.8711 36.5893 20.8711 36.5415C20.8711 36.4939 20.8736 36.4464 20.8787 36.3991C20.8839 36.3516 20.8913 36.3046 20.9012 36.2578C20.9115 36.2113 20.924 36.1651 20.9388 36.1194C20.9539 36.074 20.9713 36.0291 20.9909 35.9852C21.0105 35.9411 21.0328 35.8983 21.0569 35.8562C21.0814 35.8142 21.1079 35.7735 21.1364 35.7338C21.1651 35.6942 21.1956 35.6561 21.2283 35.6191C21.2611 35.5823 21.2958 35.5471 21.3322 35.5135C21.3687 35.4799 21.4068 35.4478 21.4467 35.4176C21.4865 35.3874 21.5278 35.3591 21.5708 35.3325C21.6135 35.3063 21.6576 35.2818 21.7031 35.2592C21.7487 35.2369 21.7951 35.2164 21.8429 35.1983C21.8904 35.1799 21.9388 35.1639 21.9884 35.1503C22.0376 35.1363 22.0874 35.1248 22.1381 35.1156C22.1888 35.1061 22.2397 35.0993 22.291 35.0946C22.3422 35.0898 22.3937 35.0875 22.4453 35.0875C22.4968 35.0875 22.5483 35.0898 22.5995 35.0946C22.6508 35.0993 22.7017 35.1061 22.7521 35.1156C22.8028 35.1248 22.8529 35.1363 22.9021 35.1503C22.9514 35.1639 22.9998 35.1799 23.0476 35.1983C23.0951 35.2164 23.1418 35.2369 23.1871 35.2592C23.2326 35.2818 23.2768 35.3063 23.3197 35.3325C23.3624 35.3591 23.404 35.3874 23.4438 35.4176C23.4837 35.4478 23.5218 35.4799 23.5583 35.5135C23.5947 35.5471 23.6292 35.5823 23.6619 35.6191C23.6946 35.6561 23.7254 35.6942 23.7538 35.7338C23.7826 35.7735 23.8091 35.8142 23.8333 35.8562C23.8577 35.8983 23.8797 35.9411 23.8993 35.9852C23.9192 36.0291 23.9366 36.074 23.9514 36.1194C23.9665 36.1651 23.979 36.2113 23.989 36.2578C23.9989 36.3046 24.0066 36.3516 24.0118 36.3991C24.0166 36.4464 24.0192 36.4939 24.0192 36.5415C24.0192 36.5893 24.0166 36.6368 24.0118 36.6841C24.0066 36.7314 23.9989 36.7786 23.989 36.8251C23.979 36.8719 23.9665 36.9181 23.9514 36.9635C23.9366 37.0092 23.9192 37.0539 23.8993 37.098C23.8797 37.1419 23.8577 37.1849 23.8333 37.227C23.8091 37.269 23.7826 37.3097 23.7538 37.3494C23.7254 37.389 23.6946 37.4271 23.6619 37.4639C23.6292 37.5009 23.5947 37.5361 23.5583 37.5697C23.5218 37.6033 23.4837 37.6354 23.4438 37.6656C23.404 37.6958 23.3624 37.7241 23.3197 37.7504C23.2768 37.7769 23.2326 37.8014 23.1871 37.824C23.1418 37.8463 23.0951 37.8668 23.0476 37.8849C22.9998 37.903 22.9514 37.919 22.9021 37.9329C22.8529 37.9469 22.8028 37.9584 22.7521 37.9676C22.7017 37.9768 22.6508 37.9839 22.5995 37.9886C22.5483 37.9934 22.4968 37.9955 22.4453 37.9955Z" fill="black"/>
</g>
<path d="M35.8234 29.9956H34.9248C34.9034 29.9184 34.8789 29.8422 34.8508 29.7669C34.8226 29.6915 34.7913 29.6172 34.7562 29.5441C34.7215 29.4711 34.6837 29.3997 34.6424 29.3296C34.6014 29.2594 34.5573 29.1912 34.51 29.1244C34.4625 29.0577 34.4124 28.9929 34.3594 28.9301C34.3062 28.8673 34.2504 28.8064 34.192 28.7478C34.1334 28.6892 34.0725 28.633 34.009 28.5789C33.9452 28.5251 33.8795 28.4736 33.8114 28.4245C33.7431 28.3756 33.6731 28.3294 33.6008 28.2858C33.5285 28.2422 33.4545 28.2015 33.3785 28.1637C33.3025 28.1256 33.225 28.0907 33.1459 28.0586C33.0668 28.0269 32.9865 27.9977 32.9048 27.972C32.8234 27.946 32.7405 27.9234 32.6569 27.9039C32.5732 27.8842 32.4889 27.868 32.4038 27.8548C32.3187 27.8417 32.233 27.832 32.147 27.8254C32.0611 27.8188 31.9748 27.8154 31.8885 27.8154C31.8023 27.8154 31.716 27.8188 31.6301 27.8254C31.5438 27.832 31.4584 27.8417 31.3733 27.8548C31.2882 27.868 31.2036 27.8842 31.12 27.9039C31.0363 27.9234 30.9537 27.946 30.872 27.972C30.7903 27.9977 30.71 28.0269 30.6309 28.0586C30.5521 28.0907 30.4743 28.1256 30.3986 28.1637C30.3226 28.2015 30.2486 28.2422 30.1763 28.2858C30.104 28.3294 30.0337 28.3756 29.9656 28.4245C29.8973 28.4736 29.8316 28.5251 29.7681 28.5789C29.7046 28.633 29.6434 28.6892 29.5851 28.7478C29.5264 28.8064 29.4706 28.8673 29.4177 28.9301C29.3644 28.9929 29.3143 29.0577 29.2671 29.1244C29.2198 29.1912 29.1757 29.2594 29.1344 29.3296C29.0932 29.3997 29.0553 29.4711 29.0206 29.5441C28.9858 29.6172 28.9542 29.6915 28.9263 29.7669C28.8982 29.8422 28.8734 29.9184 28.852 29.9956H13.7868C13.7353 29.9956 13.684 30.0004 13.6334 30.0098C13.5827 30.019 13.5335 30.0329 13.4856 30.051C13.4381 30.0694 13.3926 30.0918 13.3496 30.1183C13.3069 30.1448 13.267 30.175 13.2306 30.2086C13.1939 30.2425 13.1614 30.279 13.1327 30.3189C13.1039 30.3586 13.0797 30.4004 13.0598 30.4445C13.0401 30.4886 13.0251 30.534 13.0151 30.5808C13.0048 30.6278 13 30.6751 13 30.7226C13 30.7704 13.0048 30.8177 13.0151 30.8644C13.0251 30.9115 13.0401 30.9569 13.0598 31.001C13.0797 31.0451 13.1039 31.0869 13.1327 31.1266C13.1614 31.1662 13.1939 31.203 13.2306 31.2369C13.267 31.2705 13.3069 31.3007 13.3496 31.3272C13.3926 31.3537 13.4381 31.3761 13.4856 31.3945C13.5335 31.4126 13.5827 31.4265 13.6334 31.4357C13.684 31.4451 13.7353 31.4496 13.7868 31.4496H28.852C28.8734 31.5271 28.8982 31.6033 28.9263 31.6786C28.9542 31.754 28.9858 31.8283 29.0206 31.9014C29.0553 31.9741 29.0932 32.0458 29.1344 32.1159C29.1757 32.1858 29.2198 32.2544 29.2671 32.3211C29.3143 32.3878 29.3644 32.4524 29.4177 32.5154C29.4706 32.5782 29.5264 32.6391 29.5851 32.6977C29.6434 32.7563 29.7046 32.8125 29.7681 32.8666C29.8316 32.9204 29.8973 32.9719 29.9656 33.0207C30.0337 33.0699 30.104 33.1161 30.1763 33.1597C30.2486 33.2033 30.3226 33.244 30.3986 33.2818C30.4743 33.3196 30.5521 33.3546 30.6309 33.3866C30.71 33.4186 30.7903 33.4475 30.872 33.4735C30.9537 33.4993 31.0363 33.5221 31.12 33.5416C31.2036 33.5613 31.2882 33.5775 31.3733 33.5907C31.4584 33.6038 31.5438 33.6135 31.6301 33.6201C31.716 33.6267 31.8023 33.6301 31.8885 33.6301C31.9748 33.6301 32.0611 33.6267 32.147 33.6201C32.233 33.6135 32.3187 33.6038 32.4038 33.5907C32.4889 33.5775 32.5732 33.5613 32.6569 33.5416C32.7405 33.5221 32.8234 33.4993 32.9048 33.4735C32.9865 33.4475 33.0668 33.4186 33.1459 33.3866C33.225 33.3546 33.3025 33.3196 33.3785 33.2818C33.4545 33.244 33.5285 33.2033 33.6008 33.1597C33.6731 33.1161 33.7431 33.0699 33.8114 33.0207C33.8795 32.9719 33.9452 32.9204 34.009 32.8666C34.0725 32.8125 34.1334 32.7563 34.192 32.6977C34.2504 32.6391 34.3062 32.5782 34.3594 32.5154C34.4124 32.4524 34.4625 32.3878 34.51 32.3211C34.5573 32.2544 34.6014 32.1858 34.6424 32.1159C34.6837 32.0458 34.7215 31.9741 34.7562 31.9014C34.7913 31.8283 34.8226 31.754 34.8508 31.6786C34.8789 31.6033 34.9034 31.5271 34.9248 31.4496H35.8234C35.8753 31.4496 35.9265 31.4451 35.9772 31.4357C36.0278 31.4265 36.0771 31.4126 36.1249 31.3945C36.1724 31.3761 36.218 31.3537 36.2607 31.3272C36.3037 31.3007 36.3435 31.2705 36.38 31.2369C36.4167 31.203 36.4491 31.1662 36.4779 31.1266C36.5066 31.0869 36.5308 31.0451 36.5508 31.001C36.5704 30.9569 36.5855 30.9115 36.5955 30.8644C36.6057 30.8177 36.6105 30.7704 36.6105 30.7226C36.6105 30.6751 36.6057 30.6278 36.5955 30.5808C36.5855 30.534 36.5704 30.4886 36.5508 30.4445C36.5308 30.4004 36.5066 30.3586 36.4779 30.3189C36.4491 30.279 36.4167 30.2425 36.38 30.2086C36.3435 30.175 36.3037 30.1448 36.2607 30.1183C36.218 30.0918 36.1724 30.0694 36.1249 30.051C36.0771 30.0329 36.0278 30.019 35.9772 30.0098C35.9265 30.0004 35.8753 29.9956 35.8234 29.9956ZM31.8885 32.1766C31.837 32.1766 31.7855 32.1745 31.7343 32.1698C31.683 32.1651 31.6321 32.158 31.5814 32.1488C31.5307 32.1396 31.4809 32.128 31.4317 32.1141C31.3821 32.1002 31.3337 32.0842 31.2862 32.066C31.2384 32.0479 31.192 32.0274 31.1464 32.0051C31.1009 31.9825 31.0568 31.9581 31.0141 31.9316C30.9711 31.9053 30.9298 31.8769 30.8899 31.8467C30.8501 31.8165 30.812 31.7845 30.7755 31.7509C30.7391 31.7172 30.7043 31.6821 30.6716 31.645C30.6389 31.6083 30.6084 31.5702 30.5797 31.5305C30.5512 31.4908 30.5247 31.4501 30.5002 31.4081C30.476 31.3661 30.4538 31.323 30.4342 31.2792C30.4146 31.235 30.3972 31.1904 30.3821 31.1447C30.3673 31.0992 30.3548 31.053 30.3445 31.0063C30.3346 30.9598 30.3272 30.9125 30.322 30.8652C30.3169 30.818 30.3144 30.7704 30.3144 30.7226C30.3144 30.6751 30.3169 30.6275 30.322 30.5803C30.3272 30.5327 30.3346 30.4857 30.3445 30.439C30.3548 30.3925 30.3673 30.3463 30.3821 30.3006C30.3972 30.2551 30.4146 30.2102 30.4342 30.1663C30.4538 30.1222 30.476 30.0794 30.5002 30.0374C30.5247 29.9954 30.5512 29.9547 30.5797 29.915C30.6084 29.8753 30.6389 29.8373 30.6716 29.8002C30.7043 29.7634 30.7391 29.7283 30.7755 29.6946C30.812 29.661 30.8501 29.629 30.8899 29.5988C30.9298 29.5686 30.9711 29.5402 31.0141 29.5137C31.0568 29.4874 31.1009 29.463 31.1464 29.4404C31.192 29.4181 31.2384 29.3976 31.2862 29.3795C31.3337 29.3611 31.3821 29.3451 31.4317 29.3314C31.4809 29.3175 31.5307 29.3059 31.5814 29.2967C31.6321 29.2873 31.683 29.2804 31.7343 29.2757C31.7855 29.271 31.837 29.2686 31.8885 29.2686C31.9401 29.2686 31.9916 29.271 32.0428 29.2757C32.0941 29.2804 32.145 29.2873 32.1954 29.2967C32.2461 29.3059 32.2962 29.3175 32.3454 29.3314C32.3947 29.3451 32.4431 29.3611 32.4909 29.3795C32.5384 29.3976 32.5851 29.4181 32.6304 29.4404C32.6759 29.463 32.72 29.4874 32.763 29.5137C32.8057 29.5402 32.8473 29.5686 32.8871 29.5988C32.927 29.629 32.9651 29.661 33.0016 29.6946C33.038 29.7283 33.0725 29.7634 33.1052 29.8002C33.1379 29.8373 33.1687 29.8753 33.1971 29.915C33.2259 29.9547 33.2524 29.9954 33.2766 30.0374C33.301 30.0794 33.323 30.1222 33.3426 30.1663C33.3625 30.2102 33.3799 30.2551 33.3947 30.3006C33.4098 30.3463 33.4223 30.3925 33.4323 30.439C33.4422 30.4857 33.4499 30.5327 33.455 30.5803C33.4599 30.6275 33.4625 30.6751 33.4625 30.7226C33.4625 30.7704 33.4599 30.818 33.455 30.8652C33.4499 30.9125 33.4422 30.9598 33.4323 31.0063C33.4223 31.053 33.4098 31.0992 33.3947 31.1447C33.3799 31.1904 33.3625 31.235 33.3426 31.2792C33.323 31.323 33.301 31.3661 33.2766 31.4081C33.2524 31.4501 33.2259 31.4908 33.1971 31.5305C33.1687 31.5702 33.1379 31.6083 33.1052 31.645C33.0725 31.6821 33.038 31.7172 33.0016 31.7509C32.9651 31.7845 32.927 31.8165 32.8871 31.8467C32.8473 31.8769 32.8057 31.9053 32.763 31.9316C32.72 31.9581 32.6759 31.9825 32.6304 32.0051C32.5851 32.0274 32.5384 32.0479 32.4909 32.066C32.4431 32.0842 32.3947 32.1002 32.3454 32.1141C32.2962 32.128 32.2461 32.1396 32.1954 32.1488C32.145 32.158 32.0941 32.1651 32.0428 32.1698C31.9916 32.1745 31.9401 32.1766 31.8885 32.1766Z" fill="black"/>
<defs>
<filter id="filter0_d_2003_2908" x="-4" y="11" width="58" height="40.0811" filterUnits="userSpaceOnUse" color-interpolation-filters="sRGB">
<feFlood flood-opacity="0" result="BackgroundImageFix"/>
<feColorMatrix in="SourceAlpha" type="matrix" values="0 0 0 0 0 0 0 0 0 0 0 0 0 0 0 0 0 0 127 0" result="hardAlpha"/>
<feOffset/>
<feGaussianBlur stdDeviation="2"/>
<feComposite in2="hardAlpha" operator="out"/>
<feColorMatrix type="matrix" values="0 0 0 0 0 0 0 0 0 0 0 0 0 0 0 0 0 0 0.25 0"/>
<feBlend mode="normal" in2="BackgroundImageFix" result="effect1_dropShadow_2003_2908"/>
<feBlend mode="normal" in="SourceGraphic" in2="effect1_dropShadow_2003_2908" result="shape"/>
</filter>
</defs>
</svg>
