<svg width="30" height="33" viewBox="0 0 30 33" fill="none" xmlns="http://www.w3.org/2000/svg">
<mask id="mask0_1_1704" style="mask-type:luminance" maskUnits="userSpaceOnUse" x="0" y="0" width="30" height="33">
<path d="M0 0H30V33H0V0Z" fill="white"/>
</mask>
<g mask="url(#mask0_1_1704)">
<path fill-rule="evenodd" clip-rule="evenodd" d="M14.7302 32.8831C7.32878 29.828 3.00793 23.7892 1.12317 16.3668C0.471533 13.7981 0.126185 11.1427 0.0551619 8.49922C0.0329674 7.68453 0.0374061 6.86984 0.0746932 6.05602C0.0897854 5.74664 0.105766 5.43727 0.138614 5.12961L0.22029 4.34758L1.01219 4.52031C4.37157 5.2568 7.70431 4.73344 10.7379 3.18313C11.7224 2.67953 12.6608 2.07883 13.5211 1.39391C13.854 1.13008 14.1922 0.851641 14.4861 0.546562L15.0117 0L15.5372 0.546562C15.8364 0.856797 16.1809 1.13953 16.52 1.40852C17.382 2.09172 18.3213 2.69156 19.3076 3.1943C22.3359 4.73602 25.6606 5.25422 29.012 4.52031L29.803 4.34758L29.8856 5.12961C29.9176 5.43727 29.9344 5.74664 29.9486 6.05602C29.9868 6.86984 29.9904 7.68453 29.9682 8.49922C29.8971 11.1427 29.5527 13.7981 28.9002 16.3668C27.0163 23.7892 22.6945 29.828 15.2931 32.8831L15.0117 33L14.7302 32.8831ZM15.0117 29.755C20.99 26.944 24.3751 21.7998 25.9341 15.6587C26.5342 13.2945 26.8485 10.8556 26.9142 8.42188C26.9204 8.20961 26.9248 7.99734 26.9275 7.78508C23.7723 7.95523 20.6553 7.23078 17.8606 5.8025C16.8689 5.29547 15.9048 4.70164 15.0117 4.03906C14.1186 4.70164 13.1553 5.29547 12.1628 5.8025C9.36802 7.23078 6.25101 7.95523 3.09582 7.78508C3.09937 8.02656 3.1047 8.26805 3.1118 8.50953C3.18371 10.9424 3.5042 13.3805 4.11145 15.7437C5.68194 21.8513 9.06439 26.9577 15.0117 29.755Z" fill="#C49E5E"/>
</g>
<path d="M9.46063 15.9372L12.2643 18.6554L20.5606 10.6143L22.2119 12.2153L13.0908 21.0574L12.2643 21.8583L11.4386 21.0574L7.80846 17.5382L9.46063 15.9372Z" fill="#C49E5E"/>
</svg>
