<svg width="30" height="30" viewBox="0 0 30 30" fill="none" xmlns="http://www.w3.org/2000/svg">
<mask id="mask0_1_1713" style="mask-type:luminance" maskUnits="userSpaceOnUse" x="0" y="0" width="30" height="30">
<path d="M0 0.699951H29.3001V30H0V0.699951Z" fill="white"/>
</mask>
<g mask="url(#mask0_1_1713)">
<path d="M15.2743 0.882812H14.5586C6.52971 0.882812 0 7.41408 0 15.443C0 23.4712 6.52971 30.0017 14.5586 30.0017C22.5868 30.0017 29.1173 23.4704 29.1173 15.443V14.729H15.2743V0.882812ZM18.1876 18.3133L20.3446 16.1563H23.7704L19.9032 20.0266L18.1876 18.3133ZM17.6821 17.8102L16.0305 16.1563H19.3329L17.6821 17.8102ZM8.13518 21.1102H2.7172C2.21641 20.0665 1.85235 18.9462 1.63907 17.7711H11.4727L8.13518 21.1102ZM12.186 17.0586H1.5336C1.46719 16.5282 1.42969 15.9883 1.42969 15.443C1.42969 14.8594 1.47188 14.2852 1.5461 13.7227H13.8461V15.4008L12.186 17.0586ZM13.8446 13.0063H1.6586C1.88126 11.8321 2.2586 10.7133 2.7711 9.67034H13.8446V13.0063ZM13.8446 4.90548H6.74065C8.74612 3.41251 11.1922 2.47344 13.8446 2.33204V4.90548ZM5.85939 5.61877H13.8461V8.95784H3.15001C3.86486 7.69924 4.78439 6.57346 5.85939 5.61877ZM3.09064 21.8235H7.42112L4.91017 24.3352C4.20939 23.5743 3.59845 22.7313 3.09064 21.8235ZM5.66877 25.0915L14.5594 16.2001L23.4532 25.0915C21.111 27.2477 17.9883 28.5712 14.5594 28.5712C11.1328 28.5712 8.0094 27.2509 5.66877 25.0915ZM24.2079 24.3329L22.6243 22.7493L27.4517 17.9251C26.9821 20.3688 25.8329 22.5727 24.2079 24.3329ZM27.6243 16.7422L22.1188 22.2446L20.4063 20.5321L24.7813 16.1563H27.6688C27.6595 16.3547 27.6438 16.5485 27.6243 16.7422Z" fill="#C49E5E"/>
</g>
<path d="M20.3289 5.521C19.9054 5.521 19.5601 5.91553 19.5601 6.40303C19.5601 6.89053 19.9054 7.28585 20.3289 7.28585C20.7492 7.28585 21.0945 6.88897 21.0945 6.40303C21.0945 5.91631 20.7484 5.521 20.3289 5.521Z" fill="#C49E5E"/>
<path d="M25.5313 9.62202C25.5313 9.67984 25.5266 9.73687 25.5165 9.7939C25.5071 9.85093 25.4923 9.90562 25.4735 9.95953C25.454 10.0127 25.4305 10.0634 25.4024 10.1119C25.3743 10.1603 25.343 10.2048 25.3071 10.2455C25.272 10.2861 25.2329 10.3228 25.1915 10.3548C25.1493 10.3877 25.1055 10.4142 25.0587 10.4369C25.0126 10.4587 24.9641 10.4752 24.9149 10.4869C24.8657 10.4978 24.8157 10.5041 24.7657 10.5041C24.7157 10.5041 24.6657 10.4978 24.6165 10.4869C24.5673 10.4752 24.5196 10.4587 24.4727 10.4369C24.4266 10.4142 24.3821 10.3877 24.3407 10.3548C24.2985 10.3228 24.2602 10.2861 24.2243 10.2455C24.1891 10.2048 24.1571 10.1603 24.129 10.1119C24.1009 10.0634 24.0774 10.0127 24.0587 9.95953C24.0391 9.90562 24.0243 9.85093 24.0149 9.7939C24.0048 9.73687 24.0001 9.67984 24.0001 9.62202C24.0001 9.56421 24.0048 9.5064 24.0149 9.45015C24.0243 9.39312 24.0391 9.33765 24.0587 9.28452C24.0774 9.23062 24.1009 9.17984 24.129 9.13218C24.1571 9.08374 24.1891 9.03921 24.2243 8.99858C24.2602 8.95718 24.2985 8.92124 24.3407 8.88843C24.3821 8.8564 24.4266 8.82905 24.4727 8.80718C24.5196 8.7853 24.5673 8.76812 24.6165 8.75718C24.6657 8.74546 24.7157 8.73999 24.7657 8.73999C24.8157 8.73999 24.8657 8.74546 24.9149 8.75718C24.9641 8.76812 25.0126 8.7853 25.0587 8.80718C25.1055 8.82905 25.1493 8.8564 25.1915 8.88843C25.2329 8.92124 25.272 8.95718 25.3071 8.99858C25.343 9.03921 25.3743 9.08374 25.4024 9.13218C25.4305 9.17984 25.454 9.23062 25.4735 9.28452C25.4923 9.33765 25.5071 9.39312 25.5165 9.45015C25.5266 9.5064 25.5313 9.56421 25.5313 9.62202Z" fill="#C49E5E"/>
<mask id="mask1_1_1713" style="mask-type:luminance" maskUnits="userSpaceOnUse" x="16" y="0" width="14" height="14">
<path d="M16.3 0H30V13.7H16.3V0Z" fill="white"/>
</mask>
<g mask="url(#mask1_1_1713)">
<path d="M16.4229 0V13.579H30.0018C30.0018 6.07893 23.9213 0 16.4229 0ZM18.8471 6.40315C18.8471 5.52346 19.5112 4.80861 20.3291 4.80861C21.144 4.80861 21.808 5.52424 21.808 6.40315C21.808 7.2844 21.144 7.99925 20.3291 7.99925C19.5112 7.99925 18.8471 7.28362 18.8471 6.40315ZM20.8948 11.2297C20.833 11.2297 20.7713 11.2125 20.7158 11.1797C20.5455 11.0828 20.4869 10.8633 20.5862 10.6938L23.8877 4.9758C23.987 4.80236 24.2073 4.74689 24.3768 4.84377C24.5471 4.94299 24.6049 5.1633 24.5057 5.33205L21.2049 11.0508C21.1393 11.1657 21.0182 11.2297 20.8948 11.2297ZM24.7659 11.2196C23.9479 11.2196 23.2838 10.5016 23.2838 9.62269C23.2838 8.74144 23.9479 8.02659 24.7659 8.02659C25.5815 8.02659 26.2456 8.74222 26.2456 9.62269C26.244 10.5024 25.5799 11.2196 24.7659 11.2196Z" fill="#C49E5E"/>
</g>
</svg>
