<svg width="30" height="25" viewBox="0 0 30 25" fill="none" xmlns="http://www.w3.org/2000/svg">
<path d="M6.44062 18.0297V21.8899C6.44062 22.2704 6.75 22.5805 7.12891 22.5805H10.9781C11.3562 22.5805 11.6664 22.2704 11.6664 21.8899V18.0297C11.6664 17.6493 11.3562 17.3391 10.9781 17.3391H7.12891C6.75 17.3391 6.44062 17.6493 6.44062 18.0297ZM8.01641 18.5297C8.01641 18.4352 8.09219 18.3586 8.18672 18.3586H9.92344C10.018 18.3586 10.0937 18.4352 10.0937 18.5297V18.8688C10.0937 18.9641 10.018 19.0399 9.92344 19.0399H8.18672C8.09219 19.0399 8.01641 18.9641 8.01641 18.8688V18.5297Z" fill="#C49E5E"/>
<path d="M12.3858 18.0297V21.8899C12.3858 22.2704 12.6952 22.5805 13.0741 22.5805H16.9257C17.3046 22.5805 17.614 22.2704 17.614 21.8899V18.0297C17.614 17.6493 17.3046 17.3391 16.9257 17.3391H13.0741C12.6952 17.3391 12.3858 17.6493 12.3858 18.0297ZM13.9608 18.5297C13.9608 18.4352 14.0366 18.3586 14.1319 18.3586H15.8679C15.9632 18.3586 16.039 18.4352 16.039 18.5297V18.8688C16.039 18.9641 15.9632 19.0399 15.8679 19.0399H14.1319C14.0366 19.0399 13.9608 18.9641 13.9608 18.8688V18.5297Z" fill="#C49E5E"/>
<path d="M13.9516 11.3757H10.1031C9.72422 11.3757 9.41484 11.6859 9.41484 12.0664V15.9265C9.41484 16.307 9.72422 16.6171 10.1031 16.6171H13.9516C14.3305 16.6171 14.6398 16.307 14.6398 15.9265V12.0664C14.6398 11.6859 14.3336 11.3757 13.9516 11.3757ZM13.0648 12.9054C13.0648 13.0007 12.9891 13.0765 12.8945 13.0765H11.1578C11.0633 13.0765 10.9875 13.0007 10.9875 12.9054V12.5664C10.9875 12.4718 11.0633 12.3953 11.1578 12.3953H12.8945C12.9891 12.3953 13.0648 12.4718 13.0648 12.5664V12.9054Z" fill="#C49E5E"/>
<path d="M19.8968 16.6203C20.2757 16.6203 20.5851 16.3101 20.5851 15.9296V12.0664C20.5851 11.6859 20.2757 11.3757 19.8968 11.3757H16.0483C15.6694 11.3757 15.3601 11.6859 15.3601 12.0664V15.9265C15.3601 16.307 15.6694 16.6171 16.0483 16.6171H19.8968V16.6203ZM16.9351 12.5664C16.9351 12.4718 17.0108 12.3953 17.1054 12.3953H18.8421C18.9366 12.3953 19.0124 12.4718 19.0124 12.5664V12.9054C19.0124 13.0007 18.9366 13.0765 18.8421 13.0765H17.1054C17.0108 13.0765 16.9351 13.0007 16.9351 12.9054V12.5664Z" fill="#C49E5E"/>
<path d="M22.8711 17.3391H19.0187C18.6398 17.3391 18.3305 17.6493 18.3305 18.0297V21.8899C18.3305 22.2704 18.6398 22.5805 19.0187 22.5805H22.868C23.2469 22.5805 23.5562 22.2704 23.5562 21.8899V18.0297C23.5594 17.6493 23.25 17.3391 22.8711 17.3391ZM21.9836 18.8688C21.9836 18.9641 21.9078 19.0399 21.8133 19.0399H20.0766C19.982 19.0399 19.9062 18.9641 19.9062 18.8688V18.5297C19.9062 18.4352 19.982 18.3586 20.0766 18.3586H21.8133C21.9078 18.3586 21.9836 18.4352 21.9836 18.5297V18.8688Z" fill="#C49E5E"/>
<mask id="mask0_1_1728" style="mask-type:luminance" maskUnits="userSpaceOnUse" x="6" y="23" width="18" height="2">
<path d="M6.3 23.2H23.7V24.2875H6.3V23.2Z" fill="white"/>
</mask>
<g mask="url(#mask0_1_1728)">
<path d="M23.0697 23.3054H6.93066C6.66191 23.3054 6.44082 23.5242 6.44082 23.7968C6.44082 24.0656 6.65879 24.2875 6.93066 24.2875H23.0697C23.3385 24.2875 23.5596 24.0687 23.5596 23.7968C23.5596 23.5242 23.3416 23.3054 23.0697 23.3054Z" fill="#C49E5E"/>
</g>
<mask id="mask1_1_1728" style="mask-type:luminance" maskUnits="userSpaceOnUse" x="0" y="0" width="30" height="25">
<path d="M0 0H30V24.2875H0V0Z" fill="white"/>
</mask>
<g mask="url(#mask1_1_1728)">
<path d="M29.725 5.06396L15.5585 0.113965C15.196 -0.0125976 14.8039 -0.0125976 14.4414 0.113965L0.27495 5.06396C0.114012 5.121 0.00307465 5.27334 0.00307465 5.44756V8.27178C0.00307465 8.49678 0.183544 8.67725 0.407762 8.67725H2.29839V23.8632C2.29839 24.0944 2.48511 24.2843 2.7187 24.2843H4.38901C4.61948 24.2843 4.80854 24.0976 4.80854 23.8632V8.67725H25.1976V23.8632C25.1976 24.0944 25.3835 24.2843 25.6171 24.2843H27.2812C27.5117 24.2843 27.7015 24.0976 27.7015 23.8632V8.67725H29.5921C29.8164 8.67725 29.9968 8.49678 29.9968 8.27178V5.44756C29.9968 5.27334 29.889 5.121 29.725 5.06396Z" fill="#C49E5E"/>
</g>
</svg>
