<svg width="30" height="34" viewBox="0 0 30 34" fill="none" xmlns="http://www.w3.org/2000/svg">
<mask id="mask0_1_1746" style="mask-type:luminance" maskUnits="userSpaceOnUse" x="0" y="0" width="30" height="34">
<path d="M0 0H30V33.2222H0V0Z" fill="white"/>
</mask>
<g mask="url(#mask0_1_1746)">
<path d="M29.5077 21.5416C29.2187 21.0607 28.0373 19.6311 24.9418 21.4314L19.5659 24.559C19.3437 24.6875 19.1189 24.7847 18.8871 24.8507C18.9626 24.7083 19.0234 24.5521 19.0685 24.3837C19.3515 23.329 18.7248 22.2283 17.6414 21.8784C17.6189 21.8706 17.5954 21.8646 17.572 21.8602C16.0312 21.5833 14.5086 21.0338 13.2855 20.592C12.8593 20.4383 12.4574 20.2925 12.1145 20.1814C10.7161 19.7283 9.45739 20.2864 8.41052 20.8915L4.46173 23.1745L4.11364 22.5607C3.94003 22.2534 3.65531 22.0321 3.3133 21.9366C2.97128 21.842 2.61278 21.8863 2.30462 22.0599L0.796805 22.9123C0.159652 23.2725 -0.0651744 24.0824 0.295069 24.7187L4.72996 32.5442C4.90444 32.8515 5.1883 33.0729 5.53118 33.1675C5.64923 33.2005 5.76903 33.217 5.88882 33.217C6.11451 33.217 6.3376 33.1588 6.53899 33.0451L8.04767 32.1918C8.68482 31.8324 8.90965 31.0217 8.54854 30.3854L8.12059 29.6293L8.96087 29.1449L15.8228 30.9817C16.2074 31.0842 16.5911 31.1354 16.9678 31.1354C17.73 31.1354 18.4661 30.9262 19.1397 30.5121L28.8958 24.513C29.8116 23.9505 30.1024 22.5338 29.5077 21.5416ZM7.51903 31.2604L6.01121 32.1128C5.93222 32.158 5.85583 32.1467 5.81677 32.1363C5.77857 32.1258 5.70739 32.0955 5.66226 32.0165L1.22823 24.1918C1.15965 24.0712 1.20392 23.9123 1.32458 23.8437L2.83326 22.9913C2.87667 22.9661 2.92007 22.9592 2.95653 22.9592C2.98517 22.9592 3.00948 22.9635 3.02684 22.9687C3.06503 22.9791 3.13621 23.0087 3.18135 23.0876L7.61625 30.9132C7.68396 31.033 7.63969 31.1927 7.51903 31.2604ZM16.6857 25.8576L17.3541 25.967C18.368 26.1284 19.2682 25.9705 20.105 25.4835L25.4808 22.3567C26.9973 21.4748 28.1588 21.3758 28.5876 22.0911C28.8819 22.5816 28.7534 23.3437 28.3341 23.6015L18.5772 29.6007C17.8185 30.0677 16.9843 30.184 16.0998 29.9479L9.02337 28.0538C8.88621 28.0173 8.73951 28.0364 8.61712 28.1076L7.59281 28.6979L4.98951 24.1059L8.94698 21.8177C9.83239 21.3064 10.7881 20.8767 11.7838 21.1996C12.1093 21.3055 12.4852 21.4409 12.9209 21.5981C14.1727 22.0503 15.7265 22.6111 17.3419 22.9071C17.8715 23.0937 18.1683 23.6041 18.0329 24.1067C17.8558 24.7691 17.2994 24.8507 16.8558 24.8003C16.0676 24.638 15.3176 24.4245 14.5234 24.1979C14.1458 24.0903 13.7551 23.9791 13.3532 23.8715C13.0676 23.7951 12.7734 23.9644 12.697 24.25C12.6206 24.5356 12.7899 24.829 13.0763 24.9054C13.4695 25.0104 13.8558 25.1206 14.2291 25.2274C15.0511 25.4618 15.8272 25.6831 16.664 25.8541M3.24125 24.4514C3.28465 24.7456 3.08066 25.0182 2.78639 25.0616C2.49212 25.1041 2.21868 24.901 2.17615 24.6067C2.13274 24.3133 2.33674 24.0399 2.63101 23.9974C2.92528 23.954 3.19871 24.158 3.24125 24.4514ZM11.1466 8.39407C11.3949 8.87671 11.519 9.11976 11.5546 9.32115C11.5902 9.52254 11.5564 9.79251 11.4886 10.3307C11.4713 10.4661 11.4522 10.6172 11.4322 10.7864C11.3211 11.7187 11.8263 12.5937 12.6909 12.9635C12.848 13.0312 12.9886 13.0903 13.1145 13.1432C13.1371 13.1528 13.1588 13.1623 13.1814 13.171L11.1892 17.4436C11.105 17.6241 11.1284 17.8368 11.2491 17.9948C11.3706 18.1536 11.5702 18.2309 11.7673 18.197L13.9565 17.8151L15.0737 19.7335C15.1692 19.8993 15.3463 20 15.5364 20C15.5451 20 15.5529 20 15.5607 19.9991C15.7603 19.9904 15.9383 19.8715 16.0225 19.6909L17.9999 15.4496L17.9609 15.4314C18.2994 15.329 18.4991 15.2778 18.6631 15.2778C18.868 15.2778 19.1284 15.3576 19.6475 15.5182C19.7022 15.5347 19.7595 15.5521 19.8194 15.5712L21.2465 18.8793C21.3255 19.0625 21.4999 19.1866 21.6996 19.2014C21.7126 19.2022 21.7256 19.2031 21.7395 19.2031C21.9235 19.2031 22.0963 19.1076 22.1944 18.9496L23.3662 17.0642L25.5442 17.5095C25.7395 17.5495 25.9409 17.4774 26.0668 17.3229C26.1926 17.1684 26.2222 16.9566 26.1432 16.7734L24.5216 13.0121C24.5581 12.9965 24.5963 12.9809 24.6353 12.9635C25.4999 12.5946 26.0051 11.7196 25.894 10.7873C25.8732 10.6172 25.855 10.4661 25.8376 10.3307C25.7699 9.79251 25.736 9.52254 25.7716 9.32115C25.8072 9.11976 25.9314 8.87758 26.1796 8.39407C26.2421 8.27254 26.3116 8.13799 26.3888 7.98522C26.8133 7.14754 26.6371 6.15275 25.9513 5.50952C25.8272 5.3932 25.7152 5.2899 25.6154 5.19702C25.2169 4.82723 25.0164 4.64233 24.914 4.46525C24.8116 4.28817 24.7517 4.02254 24.6301 3.4939C24.5998 3.36022 24.5659 3.21178 24.5268 3.04598C24.3124 2.13192 23.5381 1.48261 22.5989 1.43053C22.4279 1.42098 22.276 1.41317 22.1397 1.40622C21.5972 1.37931 21.3246 1.36542 21.1319 1.29598C20.9392 1.22567 20.7222 1.0616 20.289 0.73348C20.1796 0.651015 20.059 0.559869 19.9218 0.457438C19.1692 -0.10593 18.157 -0.10593 17.4044 0.457438C17.2682 0.559869 17.1466 0.651015 17.0373 0.73348C16.6041 1.0616 16.3871 1.22567 16.1944 1.29598C16.0017 1.36542 15.73 1.37931 15.1866 1.40622C15.0503 1.41317 14.8984 1.42098 14.7274 1.43053C13.789 1.48261 13.0138 2.13192 12.7994 3.04598C12.7603 3.21178 12.7265 3.36022 12.6961 3.4939C12.5754 4.02254 12.5147 4.28817 12.4123 4.46525C12.3098 4.64233 12.1093 4.82723 11.7117 5.19702C11.611 5.28904 11.4999 5.3932 11.3749 5.50952C10.6892 6.15275 10.5138 7.14754 10.9374 7.98522C11.0147 8.13713 11.0841 8.27254 11.1466 8.39407ZM15.4843 18.309L14.6961 16.954C14.5833 16.7604 14.361 16.658 14.1397 16.6962L12.5937 16.9661L14.1223 13.6883C14.2491 13.829 14.3897 14.0468 14.6232 14.4071C14.697 14.5217 14.7794 14.6493 14.8732 14.7925C15.2708 15.3993 15.9287 15.7439 16.6223 15.7439C16.6414 15.7439 16.6614 15.7422 16.6814 15.7413L15.4843 18.309ZM23.2152 15.9401C22.9956 15.8949 22.7708 15.9922 22.6527 16.1823L21.8255 17.5139L21.0485 15.7135C21.611 15.6198 22.1223 15.2977 22.4531 14.7925C22.5468 14.6493 22.6293 14.5217 22.7031 14.4071C22.9982 13.9514 23.1458 13.7222 23.3029 13.5911C23.3636 13.5399 23.44 13.4922 23.539 13.4409L24.7525 16.2543L23.2152 15.9401ZM12.1084 6.2899C12.2308 6.17445 12.3411 6.07289 12.44 5.98088C13.3914 5.0998 13.4522 4.99476 13.7412 3.73174C13.7708 3.5998 13.8046 3.45397 13.8428 3.2899C13.9496 2.83504 14.3202 2.52428 14.7873 2.4991C14.9557 2.48956 15.105 2.48174 15.2404 2.4748C16.5364 2.41056 16.6501 2.3689 17.6848 1.58678C17.7925 1.50518 17.9123 1.4149 18.0468 1.31421C18.2343 1.17358 18.4487 1.10414 18.6631 1.10414C18.8775 1.10414 19.0919 1.17358 19.2794 1.31421C19.4149 1.4149 19.5347 1.50518 19.6414 1.58678C20.6761 2.3689 20.7899 2.41056 22.0859 2.4748C22.2213 2.48174 22.3706 2.48956 22.539 2.49824C23.006 2.52428 23.3767 2.83504 23.4834 3.2899C23.5216 3.45397 23.5555 3.5998 23.585 3.73174C23.8741 4.99476 23.9348 5.0998 24.8862 5.98088C24.9852 6.07289 25.0954 6.17445 25.2178 6.2899C25.559 6.60935 25.6432 7.08504 25.4322 7.50258C25.3558 7.65275 25.2873 7.78556 25.2256 7.90535C24.6336 9.059 24.6128 9.17879 24.7742 10.4644C24.7907 10.5981 24.8098 10.7465 24.8298 10.914C24.8853 11.3776 24.6432 11.796 24.2135 11.98C24.0581 12.046 23.9201 12.1041 23.7959 12.1562C22.5998 12.6597 22.5069 12.7378 21.8029 13.8264C21.73 13.9392 21.6484 14.0659 21.5555 14.2066C21.3003 14.5972 20.8454 14.7621 20.3975 14.6276C20.236 14.579 20.0928 14.5347 19.9635 14.4948C18.7239 14.1128 18.6024 14.1128 17.3619 14.4948C17.2334 14.5347 17.0902 14.579 16.9287 14.6276C16.4808 14.7621 16.026 14.5972 15.7708 14.2066C15.6779 14.0659 15.5963 13.9392 15.5234 13.8264C14.8194 12.7378 14.7265 12.6597 13.5303 12.1562C13.4062 12.1041 13.2682 12.046 13.1128 11.98C12.6831 11.796 12.4409 11.3776 12.4965 10.914C12.5164 10.7465 12.5355 10.5972 12.552 10.4644C12.7135 9.17792 12.6926 9.059 12.1006 7.90535C12.039 7.78556 11.9704 7.65275 11.894 7.50171C11.6831 7.08504 11.7673 6.60935 12.1084 6.2899ZM18.6631 12.7968C21.3723 12.7968 23.5772 10.5946 23.5772 7.88886C23.5772 5.18313 21.3723 2.98174 18.6631 2.98174C15.9531 2.98174 13.7491 5.18313 13.7491 7.88886C13.7491 10.5946 15.9531 12.7968 18.6631 12.7968ZM18.6631 4.05206C20.782 4.05206 22.5051 5.77341 22.5051 7.88886C22.5051 10.0043 20.782 11.7257 18.6631 11.7257C16.5442 11.7257 14.8211 10.0052 14.8211 7.88886C14.8211 5.77341 16.5442 4.05206 18.6631 4.05206ZM17.2985 9.78556L15.9192 8.40796C15.71 8.19876 15.71 7.86022 15.9192 7.65101C16.1284 7.44181 16.4678 7.44268 16.677 7.65101L17.6952 8.66838L20.6675 5.9748C20.8871 5.77601 21.2256 5.79251 21.4244 6.01126C21.6232 6.23001 21.6067 6.56855 21.388 6.76733L18.0381 9.80379C17.9357 9.89667 17.8064 9.94268 17.6779 9.94268C17.5399 9.94268 17.4027 9.88973 17.2985 9.78556Z" fill="#C49E5E"/>
</g>
</svg>
