<svg width="36" height="36" viewBox="0 0 36 36" fill="none" xmlns="http://www.w3.org/2000/svg">
<g clip-path="url(#clip0_1_840)">
<path d="M18.0001 32.4299C17.7792 32.4293 17.5647 32.3554 17.3901 32.2199C11.8301 27.9 8.00011 24.1799 5.32011 20.5099C1.90011 15.8199 1.12011 11.4899 3.00011 7.63995C4.34011 4.88995 8.19011 2.63995 12.6901 3.94995C14.8357 4.56969 16.7076 5.89873 18.0001 7.71995C19.2926 5.89873 21.1646 4.56969 23.3101 3.94995C27.8001 2.65995 31.6601 4.88995 33.0001 7.63995C34.8801 11.4899 34.1001 15.8199 30.6801 20.5099C28.0001 24.1799 24.1701 27.9 18.6101 32.2199C18.4356 32.3554 18.2211 32.4293 18.0001 32.4299ZM10.1301 5.57995C9.05936 5.53828 7.99748 5.789 7.05846 6.3052C6.11943 6.8214 5.33871 7.58359 4.80011 8.50995C3.25011 11.6899 3.95011 15.2299 6.94011 19.3199C10.1177 23.4185 13.8385 27.0654 18.0001 30.1599C22.161 27.0684 25.8818 23.425 29.0601 19.3299C32.0601 15.2299 32.7501 11.6899 31.2001 8.51995C30.2001 6.51995 27.2001 4.92995 23.8601 5.86995C22.7892 6.18645 21.7963 6.72367 20.9455 7.44702C20.0947 8.17038 19.4048 9.06386 18.9201 10.0699C18.8448 10.2534 18.7166 10.4102 18.5519 10.5206C18.3872 10.631 18.1934 10.69 17.9951 10.69C17.7968 10.69 17.603 10.631 17.4383 10.5206C17.2736 10.4102 17.1455 10.2534 17.0701 10.0699C16.5891 9.06134 15.9003 8.16578 15.049 7.44197C14.1977 6.71816 13.203 6.18245 12.1301 5.86995C11.4801 5.68115 10.807 5.58355 10.1301 5.57995Z" fill="#C49E5E"/>
<g clip-path="url(#clip1_1_840)">
<rect width="36" height="36" fill="white"/>
<path d="M18.0001 32.4299C17.7792 32.4293 17.5647 32.3554 17.3901 32.2199C11.8301 27.9 8.00011 24.1799 5.32011 20.5099C1.90011 15.8199 1.12011 11.4899 3.00011 7.63995C4.34011 4.88995 8.19011 2.63995 12.6901 3.94995C14.8357 4.56969 16.7076 5.89873 18.0001 7.71995C19.2926 5.89873 21.1646 4.56969 23.3101 3.94995C27.8001 2.65995 31.6601 4.88995 33.0001 7.63995C34.8801 11.4899 34.1001 15.8199 30.6801 20.5099C28.0001 24.1799 24.1701 27.9 18.6101 32.2199C18.4356 32.3554 18.2211 32.4293 18.0001 32.4299ZM10.1301 5.57995C9.05936 5.53828 7.99748 5.789 7.05846 6.3052C6.11943 6.8214 5.33871 7.58359 4.80011 8.50995C3.25011 11.6899 3.95011 15.2299 6.94011 19.3199C10.1177 23.4185 13.8385 27.0654 18.0001 30.1599C22.161 27.0684 25.8818 23.425 29.0601 19.3299C32.0601 15.2299 32.7501 11.6899 31.2001 8.51995C30.2001 6.51995 27.2001 4.92995 23.8601 5.86995C22.7892 6.18645 21.7963 6.72367 20.9455 7.44702C20.0947 8.17038 19.4048 9.06386 18.9201 10.0699C18.8448 10.2534 18.7166 10.4102 18.5519 10.5206C18.3872 10.631 18.1934 10.69 17.9951 10.69C17.7968 10.69 17.603 10.631 17.4383 10.5206C17.2736 10.4102 17.1455 10.2534 17.0701 10.0699C16.5891 9.06134 15.9003 8.16578 15.049 7.44197C14.1977 6.71816 13.203 6.18245 12.1301 5.86995C11.4801 5.68115 10.807 5.58355 10.1301 5.57995Z" fill="#C49E5E"/>
<path d="M33.75 13.2188C33.75 23.0625 19.1545 31.0303 18.533 31.3594C18.3691 31.4475 18.186 31.4936 18 31.4936C17.814 31.4936 17.6309 31.4475 17.467 31.3594C16.8455 31.0303 2.25 23.0625 2.25 13.2188C2.25261 10.9072 3.17202 8.69106 4.80654 7.05654C6.44106 5.42202 8.65719 4.50261 10.9688 4.5C13.8727 4.5 16.4152 5.74875 18 7.85953C19.5848 5.74875 22.1273 4.5 25.0312 4.5C27.3428 4.50261 29.5589 5.42202 31.1935 7.05654C32.828 8.69106 33.7474 10.9072 33.75 13.2188Z" fill="#C49E5E"/>
</g>
</g>
<defs>
<clipPath id="clip0_1_840">
<rect width="36" height="36" fill="white"/>
</clipPath>
<clipPath id="clip1_1_840">
<rect width="36" height="36" fill="white"/>
</clipPath>
</defs>
</svg>
