<svg width="34" height="34" viewBox="0 0 34 34" fill="none" xmlns="http://www.w3.org/2000/svg">
<g clip-path="url(#clip0_1_535)">
<path d="M17.0003 30.6284C16.7916 30.6278 16.589 30.558 16.4242 30.4301C11.1731 26.3501 7.55584 22.8368 5.02473 19.3707C1.79473 14.9412 1.05806 10.8518 2.83361 7.21566C4.09917 4.61843 7.73528 2.49343 11.9853 3.73066C14.0116 4.31596 15.7796 5.57117 17.0003 7.29121C18.221 5.57117 19.9889 4.31596 22.0153 3.73066C26.2558 2.51232 29.9014 4.61843 31.1669 7.21566C32.9425 10.8518 32.2058 14.9412 28.9758 19.3707C26.4447 22.8368 22.8275 26.3501 17.5764 30.4301C17.4115 30.558 17.209 30.6278 17.0003 30.6284ZM9.5675 5.2701C8.55624 5.23074 7.55336 5.46753 6.6665 5.95506C5.77964 6.44258 5.04229 7.16243 4.53361 8.03732C3.06973 11.0407 3.73084 14.384 6.55473 18.2468C9.55576 22.1176 13.0699 25.5619 17.0003 28.4845C20.93 25.5648 24.4441 22.1238 27.4458 18.2562C30.2792 14.384 30.9308 11.0407 29.4669 8.04677C28.5225 6.15788 25.6892 4.65621 22.5347 5.54399C21.5233 5.84291 20.5856 6.35028 19.7821 7.03345C18.9785 7.71662 18.3269 8.56046 17.8692 9.51066C17.798 9.68388 17.677 9.83204 17.5214 9.9363C17.3659 10.0406 17.1828 10.0962 16.9956 10.0962C16.8083 10.0962 16.6253 10.0406 16.4697 9.9363C16.3141 9.83204 16.1931 9.68388 16.1219 9.51066C15.6677 8.55808 15.0172 7.71227 14.2131 7.02867C13.4091 6.34508 12.4696 5.83913 11.4564 5.54399C10.8425 5.36568 10.2068 5.2735 9.5675 5.2701Z" fill="#C49E5E"/>
</g>
<defs>
<clipPath id="clip0_1_535">
<rect width="34" height="34" fill="white"/>
</clipPath>
</defs>
</svg>
