<svg width="42" height="42" viewBox="0 0 42 42" fill="none" xmlns="http://www.w3.org/2000/svg">
<g clip-path="url(#clip0_1_519)">
<path d="M21 42C9.4038 42 0 32.5962 0 21C0 9.4038 9.4038 0 21 0C32.5962 0 42 9.4038 42 21C42 32.5962 32.5962 42 21 42Z" fill="url(#paint0_linear_1_519)"/>
<path d="M21 9.24828C24.8262 9.24828 25.2798 9.26088 26.7918 9.33228C28.1904 9.39528 28.9506 9.63048 29.4546 9.82788C30.1224 10.0883 30.6012 10.3991 31.101 10.8989C31.6008 11.3987 31.9116 11.8775 32.172 12.5453C32.3694 13.0493 32.6004 13.8095 32.6676 15.2081C32.7348 16.7201 32.7516 17.1737 32.7516 20.9999C32.7516 24.8261 32.739 25.2797 32.6676 26.7917C32.6046 28.1903 32.3694 28.9505 32.172 29.4545C31.9116 30.1223 31.6008 30.6011 31.101 31.1009C30.6012 31.6007 30.1224 31.9115 29.4546 32.1719C28.9506 32.3693 28.1904 32.6003 26.7918 32.6675C25.2798 32.7347 24.8262 32.7515 21 32.7515C17.1737 32.7515 16.7201 32.7389 15.2081 32.6675C13.8095 32.6045 13.0493 32.3693 12.5453 32.1719C11.8775 31.9115 11.3987 31.6007 10.8989 31.1009C10.3991 30.6011 10.0883 30.1223 9.82794 29.4545C9.63054 28.9505 9.39954 28.1903 9.33234 26.7917C9.26514 25.2797 9.24834 24.8261 9.24834 20.9999C9.24834 17.1737 9.26094 16.7201 9.33234 15.2081C9.39534 13.8095 9.63054 13.0493 9.82794 12.5453C10.0883 11.8775 10.3991 11.3987 10.8989 10.8989C11.3987 10.3991 11.8775 10.0883 12.5453 9.82788C13.0493 9.63048 13.8095 9.39948 15.2081 9.33228C16.7201 9.26088 17.1737 9.24828 21 9.24828ZM21 6.66528C17.1065 6.66528 16.6193 6.68208 15.0905 6.75348C13.5659 6.82488 12.5243 7.06428 11.6087 7.42128C10.6679 7.78248 9.86574 8.27388 9.07194 9.07188C8.27393 9.86988 7.78673 10.6679 7.41713 11.6129C7.06433 12.5243 6.82073 13.5659 6.74933 15.0947C6.67793 16.6235 6.66113 17.1107 6.66113 21.0041C6.66113 24.8975 6.67793 25.3847 6.74933 26.9135C6.82073 28.4381 7.06013 29.4797 7.41713 30.3953C7.78253 31.3319 8.27393 32.1341 9.07194 32.9279C9.86994 33.7259 10.6679 34.2131 11.6129 34.5827C12.5243 34.9355 13.5659 35.1791 15.0947 35.2505C16.6235 35.3219 17.1107 35.3387 21.0042 35.3387C24.8976 35.3387 25.3848 35.3219 26.9136 35.2505C28.4382 35.1791 29.4798 34.9397 30.3954 34.5827C31.332 34.2173 32.1342 33.7259 32.928 32.9279C33.726 32.1299 34.2132 31.3319 34.5828 30.3869C34.9356 29.4755 35.1792 28.4339 35.2506 26.9051C35.322 25.3763 35.3388 24.8891 35.3388 20.9957C35.3388 17.1023 35.322 16.6151 35.2506 15.0863C35.1792 13.5617 34.9398 12.5201 34.5828 11.6045C34.2174 10.6679 33.726 9.86568 32.928 9.07188C32.13 8.27388 31.332 7.78668 30.387 7.41708C29.4756 7.06428 28.434 6.82068 26.9052 6.74928C25.3806 6.68208 24.8934 6.66528 21 6.66528Z" fill="white"/>
<path d="M21.0003 13.6372C16.9347 13.6372 13.6377 16.9342 13.6377 20.9998C13.6377 25.0654 16.9347 28.3624 21.0003 28.3624C25.0659 28.3624 28.3629 25.0654 28.3629 20.9998C28.3629 16.9342 25.0659 13.6372 21.0003 13.6372ZM21.0003 25.7794C18.3627 25.7794 16.2207 23.6416 16.2207 20.9998C16.2207 18.358 18.3627 16.2202 21.0003 16.2202C23.6379 16.2202 25.7799 18.358 25.7799 20.9998C25.7799 23.6416 23.6379 25.7794 21.0003 25.7794Z" fill="white"/>
<path d="M28.6527 15.0695C29.6037 15.0695 30.3747 14.2985 30.3747 13.3475C30.3747 12.3965 29.6037 11.6255 28.6527 11.6255C27.7016 11.6255 26.9307 12.3965 26.9307 13.3475C26.9307 14.2985 27.7016 15.0695 28.6527 15.0695Z" fill="white"/>
</g>
<defs>
<linearGradient id="paint0_linear_1_519" x1="6.15075" y1="35.8492" x2="35.8492" y2="6.15075" gradientUnits="userSpaceOnUse">
<stop stop-color="#FFD521"/>
<stop offset="0.0551048" stop-color="#FFD020"/>
<stop offset="0.1241" stop-color="#FEC01E"/>
<stop offset="0.2004" stop-color="#FCA71B"/>
<stop offset="0.2821" stop-color="#FA8316"/>
<stop offset="0.3681" stop-color="#F85510"/>
<stop offset="0.4563" stop-color="#F51E09"/>
<stop offset="0.5" stop-color="#F30005"/>
<stop offset="0.5035" stop-color="#F20007"/>
<stop offset="0.5966" stop-color="#E1003B"/>
<stop offset="0.6879" stop-color="#D30067"/>
<stop offset="0.7757" stop-color="#C70088"/>
<stop offset="0.8589" stop-color="#BF00A0"/>
<stop offset="0.9357" stop-color="#BB00AF"/>
<stop offset="1" stop-color="#B900B4"/>
</linearGradient>
<clipPath id="clip0_1_519">
<rect width="42" height="42" fill="white"/>
</clipPath>
</defs>
</svg>
