<svg width="29" height="28" viewBox="0 0 29 28" fill="none" xmlns="http://www.w3.org/2000/svg">
<g clip-path="url(#clip0_1_557)">
<path d="M14.4997 7C13.5767 7 12.6744 7.2737 11.907 7.78648C11.1396 8.29925 10.5414 9.02809 10.1882 9.88081C9.83503 10.7335 9.74261 11.6718 9.92268 12.5771C10.1027 13.4823 10.5472 14.3139 11.1998 14.9665C11.8525 15.6191 12.684 16.0636 13.5893 16.2437C14.4945 16.4237 15.4328 16.3313 16.2855 15.9781C17.1383 15.6249 17.8671 15.0268 18.3799 14.2593C18.8926 13.4919 19.1663 12.5896 19.1663 11.6667C19.1663 10.429 18.6747 9.242 17.7995 8.36683C16.9243 7.49167 15.7374 7 14.4997 7ZM14.4997 14C14.0382 14 13.5871 13.8632 13.2033 13.6068C12.8196 13.3504 12.5206 12.986 12.344 12.5596C12.1674 12.1332 12.1211 11.6641 12.2112 11.2115C12.3012 10.7588 12.5234 10.3431 12.8498 10.0168C13.1761 9.69043 13.5918 9.4682 14.0445 9.37817C14.4971 9.28814 14.9662 9.33434 15.3926 9.51095C15.819 9.68755 16.1834 9.98662 16.4398 10.3703C16.6962 10.7541 16.833 11.2052 16.833 11.6667C16.833 12.2855 16.5872 12.879 16.1496 13.3166C15.712 13.7542 15.1185 14 14.4997 14Z" fill="#C49E5E"/>
<path d="M14.5004 28.0004C13.518 28.0054 12.5487 27.775 11.6736 27.3284C10.7986 26.8819 10.0432 26.2322 9.47086 25.4337C5.0247 19.3005 2.76953 14.6899 2.76953 11.7289C2.76953 8.61767 4.00545 5.63389 6.20541 3.43393C8.40537 1.23397 11.3892 -0.00195312 14.5004 -0.00195312C17.6116 -0.00195312 20.5954 1.23397 22.7953 3.43393C24.9953 5.63389 26.2312 8.61767 26.2312 11.7289C26.2312 14.6899 23.976 19.3005 19.5299 25.4337C18.9575 26.2322 18.2022 26.8819 17.3271 27.3284C16.4521 27.775 15.4828 28.0054 14.5004 28.0004ZM14.5004 2.54488C12.0649 2.54766 9.72988 3.51639 8.00772 5.23856C6.28555 6.96073 5.31681 9.2957 5.31403 11.7312C5.31403 14.0762 7.52253 18.4127 11.5312 23.9415C11.8715 24.4103 12.318 24.7918 12.834 25.0549C13.3501 25.3179 13.9211 25.4551 14.5004 25.4551C15.0796 25.4551 15.6506 25.3179 16.1667 25.0549C16.6828 24.7918 17.1292 24.4103 17.4695 23.9415C21.4782 18.4127 23.6867 14.0762 23.6867 11.7312C23.6839 9.2957 22.7152 6.96073 20.993 5.23856C19.2708 3.51639 16.9359 2.54766 14.5004 2.54488Z" fill="#C49E5E"/>
</g>
<defs>
<clipPath id="clip0_1_557">
<rect width="28" height="28" fill="white" transform="translate(0.5)"/>
</clipPath>
</defs>
</svg>
