<svg width="28" height="28" viewBox="0 0 28 28" fill="none" xmlns="http://www.w3.org/2000/svg">
<g clip-path="url(#clip0_1_745)">
<path d="M13.9997 7C13.0767 7 12.1744 7.2737 11.407 7.78648C10.6396 8.29925 10.0414 9.02809 9.68824 9.88081C9.33503 10.7335 9.24261 11.6718 9.42268 12.5771C9.60274 13.4823 10.0472 14.3139 10.6998 14.9665C11.3525 15.6191 12.184 16.0636 13.0893 16.2437C13.9945 16.4237 14.9328 16.3313 15.7855 15.9781C16.6383 15.6249 17.3671 15.0268 17.8799 14.2593C18.3926 13.4919 18.6663 12.5896 18.6663 11.6667C18.6663 10.429 18.1747 9.242 17.2995 8.36683C16.4243 7.49167 15.2374 7 13.9997 7ZM13.9997 14C13.5382 14 13.0871 13.8632 12.7033 13.6068C12.3196 13.3504 12.0206 12.986 11.844 12.5596C11.6674 12.1332 11.6211 11.6641 11.7112 11.2115C11.8012 10.7588 12.0234 10.3431 12.3498 10.0168C12.6761 9.69043 13.0918 9.4682 13.5445 9.37817C13.9971 9.28814 14.4662 9.33434 14.8926 9.51095C15.319 9.68755 15.6834 9.98662 15.9398 10.3703C16.1962 10.7541 16.333 11.2052 16.333 11.6667C16.333 12.2855 16.0872 12.879 15.6496 13.3166C15.212 13.7542 14.6185 14 13.9997 14Z" fill="black"/>
<path d="M14.0004 28.0004C13.018 28.0054 12.0487 27.775 11.1736 27.3284C10.2986 26.8819 9.54323 26.2322 8.97086 25.4337C4.5247 19.3005 2.26953 14.6899 2.26953 11.7289C2.26953 8.61767 3.50545 5.63389 5.70541 3.43393C7.90537 1.23397 10.8892 -0.00195312 14.0004 -0.00195312C17.1116 -0.00195312 20.0954 1.23397 22.2953 3.43393C24.4953 5.63389 25.7312 8.61767 25.7312 11.7289C25.7312 14.6899 23.476 19.3005 19.0299 25.4337C18.4575 26.2322 17.7022 26.8819 16.8271 27.3284C15.9521 27.775 14.9828 28.0054 14.0004 28.0004ZM14.0004 2.54488C11.5649 2.54766 9.22988 3.51639 7.50772 5.23856C5.78555 6.96073 4.81681 9.2957 4.81403 11.7312C4.81403 14.0762 7.02253 18.4127 11.0312 23.9415C11.3715 24.4103 11.818 24.7918 12.334 25.0549C12.8501 25.3179 13.4211 25.4551 14.0004 25.4551C14.5796 25.4551 15.1506 25.3179 15.6667 25.0549C16.1828 24.7918 16.6292 24.4103 16.9695 23.9415C20.9782 18.4127 23.1867 14.0762 23.1867 11.7312C23.1839 9.2957 22.2152 6.96073 20.493 5.23856C18.7708 3.51639 16.4359 2.54766 14.0004 2.54488Z" fill="black"/>
</g>
<defs>
<clipPath id="clip0_1_745">
<rect width="28" height="28" fill="white"/>
</clipPath>
</defs>
</svg>
