<svg width="147" height="42" viewBox="0 0 147 42" fill="none" xmlns="http://www.w3.org/2000/svg">
<path d="M52.6973 9.2464L50.3677 9.25582L50.4642 17.9671L48.4452 17.9753L48.3488 9.26399L46.0192 9.27342L45.9997 7.51547L52.6779 7.48845L52.6973 9.2464Z" fill="white"/>
<path d="M60.5176 17.9264L59.5769 15.7327L55.3992 15.7496L54.5072 17.9507L52.3174 17.9596L56.6587 7.47234L58.2428 7.46593L62.6919 17.9176L60.5176 17.9264ZM56.0175 14.0832L58.9683 14.0713L57.4512 10.3102L56.0175 14.0832Z" fill="white"/>
<path d="M63.7854 7.4435L66.7828 7.43138C67.9217 7.42677 68.8047 7.68481 69.4317 8.20549C70.1215 8.78871 70.4719 9.57213 70.4828 10.5557C70.4949 11.644 70.1002 12.4671 69.2987 13.0249C68.9905 13.2459 68.6143 13.3992 68.17 13.4847L71.4492 17.8822L68.9333 17.8924L66.1222 13.697L65.8737 13.698L65.9203 17.9046L63.9013 17.9127L63.7854 7.4435ZM65.8228 9.09911L65.8577 12.254L66.4324 12.2517C66.598 12.251 66.7584 12.2399 66.9135 12.2183C67.0788 12.1863 67.2904 12.1279 67.5483 12.0431C67.8061 11.9479 68.0114 11.7849 68.1641 11.554C68.3271 11.3127 68.4067 11.0141 68.4027 10.6583C68.3988 10.3026 68.3179 10.0099 68.16 9.78031C68.0021 9.54026 67.7932 9.37891 67.5334 9.29625C67.2735 9.20312 67.0658 9.1464 66.9103 9.1261C66.7547 9.1058 66.5941 9.09599 66.4285 9.09666L65.8228 9.09911Z" fill="white"/>
<path d="M78.0261 14.0099L78.0066 12.2519L82.759 12.2327L82.7604 12.3583C82.7812 14.2313 82.2898 15.6774 81.2864 16.6965C80.3855 17.621 79.1636 18.0864 77.6209 18.0927C76.0472 18.099 74.7891 17.6332 73.8469 16.6952C72.8104 15.6634 72.2829 14.3209 72.2646 12.6676C72.2472 11.098 72.7402 9.7984 73.7435 8.76882C74.7671 7.69731 76.1227 7.15814 77.8104 7.15131C78.7215 7.14762 79.5208 7.32751 80.2082 7.69099C81.0099 8.09586 81.6641 8.73154 82.1707 9.59804L80.4264 10.5626C80.1408 10.0196 79.7324 9.60791 79.2012 9.32752C78.7639 9.10954 78.2761 9.00163 77.7377 9.00381C76.7644 9.00775 75.9706 9.31966 75.3562 9.93955C74.6701 10.6225 74.3334 11.5448 74.3463 12.7063C74.3584 13.805 74.7099 14.6878 75.4007 15.3547C76.0182 15.9487 76.7876 16.2438 77.7091 16.2401C78.5167 16.2368 79.1926 16.0248 79.7367 15.604C80.2294 15.2148 80.5496 14.6799 80.6974 13.9991L78.0261 14.0099Z" fill="white"/>
<path d="M90.3101 7.33618L90.3296 9.09413L86.6022 9.10921L86.6281 11.4479L90.2002 11.4335L90.2196 13.1914L86.6476 13.2059L86.6792 16.0625L90.4066 16.0475L90.426 17.8054L84.6797 17.8287L84.5637 7.35943L90.3101 7.33618Z" fill="white"/>
<path d="M98.2126 9.06224L95.883 9.07166L95.9795 17.7829L93.9605 17.7911L93.864 9.07983L91.5344 9.08926L91.5149 7.33131L98.1931 7.30429L98.2126 9.06224Z" fill="white"/>
<path d="M105.162 13.3507L105.155 12.7229L109.504 12.7053C109.519 14.0865 109.18 15.2338 108.486 16.147C107.587 17.3226 106.295 17.9139 104.607 17.9207C103.075 17.9269 101.79 17.4246 100.754 16.4137C99.728 15.4028 99.2064 14.1178 99.1892 12.5586C99.1721 11.0204 99.6756 9.73651 100.7 8.70685C101.734 7.66668 103.012 7.14352 104.534 7.13736C105.725 7.13254 106.811 7.50487 107.792 8.25434C108.273 8.62911 108.692 9.06692 109.05 9.56777L108.511 10.0095C108.258 9.58144 107.922 9.19561 107.504 8.85198C106.626 8.12302 105.633 7.76078 104.525 7.76526C103.2 7.77062 102.092 8.24077 101.202 9.17571C100.322 10.1106 99.8891 11.2478 99.9039 12.5871C99.9185 13.9056 100.371 15.0235 101.261 15.9407C102.151 16.8476 103.259 17.2983 104.584 17.2929C105.402 17.2896 106.125 17.114 106.753 16.7661C107.391 16.4078 107.863 15.9873 108.168 15.5047C108.575 14.8542 108.795 14.1313 108.827 13.3359L105.162 13.3507Z" fill="white"/>
<path d="M116.928 17.6982L116.151 17.7013L112.742 12.7707L112.431 12.7719L112.486 17.7161L111.803 17.7189L111.687 7.24969L113.178 7.24365C114.12 7.23984 114.852 7.41478 115.374 7.76846C116.094 8.26784 116.459 9.01457 116.47 10.0086C116.476 10.5842 116.342 11.1027 116.068 11.5642C115.793 12.0153 115.357 12.3467 114.759 12.5584C114.367 12.6961 113.943 12.7658 113.488 12.7676L116.928 17.6982ZM112.377 7.87476L112.424 12.1441L113.418 12.14C114.154 12.1371 114.726 11.9464 115.136 11.568C115.556 11.1896 115.763 10.6655 115.755 9.99584C115.746 9.11687 115.434 8.51119 114.819 8.17882C114.454 7.971 113.925 7.8685 113.231 7.87131L112.377 7.87476Z" fill="white"/>
<path d="M119.795 8.64528C120.818 7.59469 122.086 7.06634 123.598 7.06022C125.109 7.05411 126.389 7.57215 127.436 8.61436C128.483 9.65657 129.015 10.9311 129.031 12.4379C129.048 13.9447 128.544 15.2234 127.521 16.274C126.497 17.3141 125.229 17.8372 123.717 17.8434C122.195 17.8495 120.911 17.3367 119.864 16.305C118.827 15.2627 118.301 13.9882 118.284 12.4814C118.267 10.9746 118.771 9.69587 119.795 8.64528ZM120.372 15.8634C121.272 16.7702 122.385 17.2209 123.71 17.2155C125.036 17.2102 126.138 16.7505 127.019 15.8365C127.899 14.9121 128.332 13.7802 128.317 12.4408C128.302 11.0909 127.844 9.96263 126.944 9.05586C126.043 8.13863 124.93 7.6827 123.605 7.68806C122.279 7.69343 121.177 8.15832 120.297 9.08276C119.416 9.99673 118.983 11.1286 118.998 12.4785C119.013 13.8179 119.471 14.9462 120.372 15.8634Z" fill="white"/>
<path d="M131.206 7.17071L131.89 7.16794L131.962 13.7132C131.968 14.2678 131.999 14.7124 132.055 15.047C132.12 15.3711 132.243 15.6794 132.422 15.9716C132.696 16.41 133.057 16.7225 133.504 16.9091C133.962 17.0851 134.408 17.1722 134.843 17.1705C135.278 17.1687 135.717 17.078 136.16 16.8983C136.613 16.7081 136.972 16.3927 137.237 15.9522C137.409 15.6584 137.52 15.3493 137.568 15.0247C137.626 14.6896 137.653 14.2448 137.646 13.6902L137.574 7.14494L138.257 7.14218L138.33 13.6874C138.337 14.3362 138.307 14.8543 138.238 15.2417C138.17 15.6292 138.014 16.0066 137.769 16.3738C137.138 17.3182 136.165 17.793 134.85 17.7983C133.535 17.8036 132.551 17.3367 131.899 16.3976C131.646 16.0323 131.482 15.6563 131.405 15.2694C131.328 14.8825 131.286 14.3647 131.279 13.7159L131.206 7.17071Z" fill="white"/>
<path d="M143.129 12.6163L141.794 12.6217L141.849 17.5973L141.166 17.6001L141.05 7.13088L143.053 7.12277C143.933 7.11921 144.661 7.35695 145.235 7.83599C145.81 8.30457 146.102 8.97311 146.112 9.84162C146.121 10.6997 145.854 11.3757 145.311 11.8697C144.768 12.3638 144.041 12.6126 143.129 12.6163ZM141.74 7.75596L141.787 11.9939L143.154 11.9883C143.837 11.9856 144.384 11.795 144.794 11.4166C145.203 11.0278 145.405 10.509 145.398 9.86021C145.39 9.20098 145.172 8.68387 144.744 8.30888C144.325 7.93385 143.743 7.74785 142.998 7.75087L141.74 7.75596Z" fill="white"/>
<path d="M52.3988 27.1587L52.3306 21.0059L52.9518 21.0034L53.0786 32.4458L52.4573 32.4483L52.4447 31.3025C51.8849 32.1838 51.0719 32.6265 50.0054 32.6309C49.146 32.6343 48.4076 32.3391 47.7901 31.7451C47.1829 31.1406 46.8734 30.3047 46.8615 29.2374C46.8495 28.1492 47.1458 27.3265 47.7506 26.7694C48.3552 26.2019 49.082 25.9164 49.931 25.913C50.9871 25.9087 51.8097 26.324 52.3988 27.1587ZM49.9376 26.5094C49.2439 26.5122 48.6615 26.75 48.1905 27.2229C47.7298 27.6956 47.5042 28.361 47.5137 29.2191C47.5235 30.1085 47.7745 30.8034 48.2667 31.3037C48.7588 31.7935 49.3465 32.0371 50.0299 32.0343C50.7029 32.0316 51.2748 31.7833 51.7456 31.2896C52.2267 30.7854 52.4623 30.0885 52.4524 29.1991C52.4438 28.4248 52.2141 27.7821 51.7632 27.2712C51.3123 26.7602 50.7038 26.5063 49.9376 26.5094Z" fill="white"/>
<path d="M55.2382 26.0328L55.8595 26.0303L55.9304 32.4342L55.3092 32.4367L55.2382 26.0328ZM55.9182 24.3191C55.8158 24.4241 55.6869 24.477 55.5316 24.4776C55.3763 24.4782 55.2412 24.4265 55.1261 24.3223C55.0213 24.2076 54.968 24.0666 54.9661 23.8991C54.9642 23.7317 55.0145 23.5955 55.1169 23.4904C55.2295 23.3748 55.3635 23.3167 55.5188 23.3161C55.6741 23.3155 55.8041 23.3725 55.909 23.4872C56.024 23.5914 56.0825 23.7272 56.0843 23.8946C56.0862 24.062 56.0308 24.2035 55.9182 24.3191Z" fill="white"/>
<path d="M63.3079 26.0001L63.9291 25.9976L63.998 32.2132C64.0113 33.4166 63.7369 34.349 63.1747 35.0106C62.623 35.6825 61.8502 36.0205 60.8562 36.0245C59.9969 36.028 59.2694 35.785 58.6738 35.2956C58.0886 34.8166 57.7706 34.1482 57.7197 33.2903L58.372 33.2877C58.431 33.9467 58.6853 34.4689 59.1348 34.8542C59.5947 35.2396 60.1663 35.4309 60.8496 35.4281C61.3156 35.4262 61.7183 35.3304 62.0579 35.1407C62.4078 34.9509 62.6643 34.7353 62.8273 34.494C62.9903 34.2526 63.1165 33.9591 63.2058 33.6134C63.2952 33.2677 63.344 33.0007 63.3523 32.8123C63.3709 32.6239 63.3791 32.425 63.3767 32.2157L63.3667 31.3054C62.7755 32.1554 61.9467 32.5825 60.8803 32.5869C60.0416 32.5903 59.3084 32.295 58.6806 31.7011C58.0527 31.1071 57.7329 30.2817 57.7212 29.2249C57.7107 28.2726 57.9918 27.4762 58.5645 26.8355C59.1373 26.1949 59.9103 25.8726 60.8835 25.8687C61.9189 25.8645 62.7311 26.2798 63.3202 27.1145L63.3079 26.0001ZM62.6538 27.2428C62.1924 26.7215 61.5838 26.4623 60.828 26.4654C60.0722 26.4684 59.4695 26.7429 59.02 27.2889C58.5807 27.8244 58.3653 28.4793 58.3739 29.2536C58.3826 30.0384 58.6124 30.6915 59.0634 31.2129C59.5248 31.7343 60.123 31.9935 60.8582 31.9905C61.6243 31.9874 62.2374 31.7181 62.6974 31.1825C63.1575 30.647 63.383 29.9763 63.3741 29.1706C63.3656 28.4067 63.1255 27.7641 62.6538 27.2428Z" fill="white"/>
<path d="M66.1583 25.9886L66.7795 25.9861L66.8504 32.39L66.2292 32.3926L66.1583 25.9886ZM66.8382 24.2749C66.7358 24.38 66.607 24.4328 66.4517 24.4334C66.2964 24.4341 66.1612 24.3823 66.0461 24.2781C65.9413 24.1634 65.888 24.0224 65.8861 23.8549C65.8843 23.6875 65.9345 23.5513 66.0369 23.4462C66.1495 23.3307 66.2835 23.2726 66.4388 23.2719C66.5941 23.2713 66.7242 23.3283 66.829 23.443C66.944 23.5472 67.0025 23.683 67.0043 23.8504C67.0062 24.0178 66.9508 24.1593 66.8382 24.2749Z" fill="white"/>
<path d="M70.7867 26.5663L69.684 26.5708L69.7484 32.3783L69.1271 32.3808L69.0628 26.5733L68.3639 26.5761L68.3573 25.9797L69.0562 25.9769L69.0308 23.6853L69.652 23.6827L69.6774 25.9744L70.7801 25.9699L70.7867 26.5663Z" fill="white"/>
<path d="M77.1963 27.0584L77.184 25.944L77.8052 25.9415L77.8761 32.3454L77.2549 32.3479L77.2422 31.2021C76.6825 32.0834 75.8642 32.5262 74.7874 32.5306C73.9281 32.5341 73.1947 32.2283 72.5873 31.6134C71.98 30.9984 71.6707 30.1835 71.6594 29.1685C71.6484 28.1744 71.9242 27.3675 72.4868 26.7478C73.0495 26.1281 73.7915 25.8164 74.713 25.8127C75.7691 25.8084 76.5969 26.2237 77.1963 27.0584ZM74.7507 26.409C74.0777 26.4118 73.5006 26.66 73.0194 27.1538C72.5381 27.6371 72.302 28.2921 72.3112 29.1187C72.3197 29.8826 72.5496 30.5462 73.0011 31.1094C73.4525 31.6622 74.0612 31.9371 74.8274 31.934C75.5832 31.9309 76.1756 31.6564 76.6044 31.1105C77.0435 30.5541 77.2587 29.8835 77.25 29.0988C77.2403 28.2302 76.9793 27.5668 76.4669 27.1084C75.9543 26.6396 75.3823 26.4065 74.7507 26.409Z" fill="white"/>
<path d="M79.98 20.894L80.6012 20.8915L80.7279 32.3339L80.1067 32.3364L79.98 20.894Z" fill="white"/>
<path d="M91.6805 26.9998L91.6681 25.8854L92.2894 25.8829L92.3603 32.2868L91.7391 32.2893L91.7264 31.1435C91.1667 32.0248 90.3484 32.4676 89.2716 32.472C88.4123 32.4755 87.6789 32.1697 87.0715 31.5548C86.4642 30.9398 86.1549 30.1249 86.1436 29.1099C86.1326 28.1158 86.4084 27.3089 86.971 26.6892C87.5337 26.0695 88.2757 25.7578 89.1972 25.7541C90.2533 25.7498 91.0811 26.1651 91.6805 26.9998ZM89.2349 26.3504C88.5619 26.3531 87.9848 26.6014 87.5036 27.0952C87.0223 27.5785 86.7862 28.2335 86.7954 29.0601C86.8039 29.824 87.0338 30.4876 87.4853 31.0508C87.9367 31.6036 88.5454 31.8785 89.3116 31.8754C90.0674 31.8723 90.6598 31.5978 91.0886 31.0519C91.5277 30.4955 91.7428 29.8249 91.7342 29.0401C91.7245 28.1716 91.4635 27.5082 90.9511 27.0498C90.4385 26.581 89.8665 26.3479 89.2349 26.3504Z" fill="white"/>
<path d="M99.7383 25.8527L100.36 25.8502L100.428 32.0658C100.442 33.2692 100.167 34.2016 99.6051 34.8632C99.0534 35.5351 98.2806 35.8731 97.2866 35.8771C96.4273 35.8806 95.6998 35.6376 95.1042 35.1482C94.519 34.6692 94.201 34.0008 94.1501 33.1429L94.8024 33.1403C94.8614 33.7993 95.1157 34.3215 95.5652 34.7068C96.0251 35.0922 96.5967 35.2834 97.28 35.2807C97.746 35.2788 98.1487 35.183 98.4883 34.9933C98.8382 34.8035 99.0947 34.5879 99.2577 34.3466C99.4207 34.1052 99.5469 33.8117 99.6362 33.466C99.7256 33.1203 99.7744 32.8533 99.7827 32.6649C99.8013 32.4765 99.8095 32.2776 99.8071 32.0683L99.7971 31.158C99.2059 32.008 98.3771 32.4351 97.3107 32.4395C96.472 32.4429 95.7388 32.1476 95.111 31.5537C94.4831 30.9597 94.1633 30.1343 94.1516 29.0775C94.1411 28.1252 94.4222 27.3288 94.9949 26.6881C95.5677 26.0475 96.3407 25.7252 97.3139 25.7213C98.3493 25.7171 99.1615 26.1324 99.7506 26.9671L99.7383 25.8527ZM99.0842 27.0954C98.6228 26.5741 98.0142 26.3149 97.2584 26.318C96.5026 26.321 95.8999 26.5955 95.4504 27.1415C95.0111 27.677 94.7957 28.3319 94.8043 29.1062C94.813 29.891 95.0428 30.5441 95.4938 31.0655C95.9552 31.5869 96.5534 31.8461 97.2886 31.8431C98.0547 31.84 98.6678 31.5707 99.1278 31.0351C99.5878 30.4996 99.8134 29.8289 99.8045 29.0232C99.796 28.2593 99.5559 27.6167 99.0842 27.0954Z" fill="white"/>
<path d="M108.294 29.0987L102.873 29.1206C102.882 29.9159 103.133 30.5637 103.625 31.064C104.128 31.5643 104.726 31.813 105.419 31.8102C105.916 31.8082 106.355 31.6756 106.735 31.4124C107.115 31.1388 107.406 30.7819 107.609 30.3415L108.14 30.6533C107.907 31.1147 107.565 31.5242 107.113 31.8818C106.661 32.229 106.083 32.404 105.379 32.4068C104.416 32.4107 103.652 32.0999 103.086 31.4743C102.52 30.8383 102.231 30.0389 102.221 29.0762C102.209 28.0193 102.5 27.1915 103.094 26.5926C103.698 25.9937 104.42 25.6925 105.258 25.6891C106.118 25.6856 106.836 26.0019 107.412 26.6379C107.989 27.2739 108.283 28.0942 108.294 29.0987ZM102.913 28.524L107.635 28.5049C107.545 27.8565 107.28 27.3239 106.841 26.9071C106.411 26.4902 105.886 26.2831 105.265 26.2856C104.633 26.2881 104.103 26.5048 103.672 26.9356C103.242 27.3559 102.989 27.8854 102.913 28.524Z" fill="white"/>
<path d="M110.167 32.2148L110.096 25.8108L110.717 25.8083L110.729 26.8128C111.145 26.0473 111.787 25.6627 112.657 25.6592C113.444 25.656 114.032 25.9519 114.422 26.5468C114.633 26.8808 114.742 27.4192 114.751 28.1622L114.795 32.1961L114.174 32.1986L114.129 28.1647C114.123 27.5682 114.035 27.1396 113.867 26.8786C113.613 26.4611 113.197 26.2535 112.617 26.2558C111.913 26.2587 111.399 26.559 111.074 27.1568C110.851 27.5658 110.743 28.1418 110.751 28.8847L110.788 32.2123L110.167 32.2148Z" fill="white"/>
<path d="M122.053 26.4374L122.062 27.2693C121.454 26.5706 120.72 26.223 119.86 26.2265C119.094 26.2296 118.466 26.499 117.975 27.0347C117.483 27.5599 117.242 28.2201 117.251 29.0154C117.26 29.8734 117.532 30.5473 118.065 31.037C118.599 31.5162 119.207 31.7544 119.891 31.7516C120.729 31.7482 121.491 31.3632 122.176 30.5965L122.186 31.4441C121.53 32.0432 120.762 32.3446 119.882 32.3481C118.929 32.352 118.144 32.0412 117.526 31.4159C116.918 30.78 116.609 29.9859 116.599 29.0337C116.588 28.0606 116.879 27.2536 117.473 26.6129C118.066 25.9617 118.86 25.6341 119.854 25.6301C120.672 25.6268 121.405 25.8959 122.053 26.4374Z" fill="white"/>
<path d="M124.476 35.7671L125.928 32.2609L122.843 25.7592L123.558 25.7563L126.277 31.4432L128.527 25.7362L129.242 25.7333L125.191 35.7642L124.476 35.7671Z" fill="white"/>
<rect width="40.1675" height="40.8369" rx="20.0838" transform="matrix(1 -0.00278114 0.0189933 0.999871 0.216797 0.584717)" fill="black"/>
<rect x="1.019" y="0.99709" width="35.8039" height="36.4349" rx="17.9019" transform="matrix(1 -0.00278114 0.0189933 0.999871 1.40196 1.78446)" fill="black" stroke="#FFB800" stroke-width="2"/>
<path d="M12.9733 17.4585L9.13048 17.4692L9.09501 15.6136L18.7602 15.5867L18.7956 17.4422L14.9529 17.4529L15.1351 26.9838L13.1555 26.9894L12.9733 17.4585Z" fill="#FFB800"/>
<path d="M21.1891 25.4993C20.0585 24.3778 19.4771 22.9736 19.4449 21.2867C19.4127 19.5998 19.9513 18.1869 21.0608 17.0479C22.1594 15.9202 23.5626 15.354 25.2705 15.3492C26.435 15.346 27.4884 15.6242 28.4308 16.1839C29.3842 16.7436 30.1086 17.5063 30.6039 18.4721L28.6881 19.2029C28.3438 18.5965 27.8745 18.1255 27.2803 17.7897C26.686 17.454 26.0285 17.2871 25.3076 17.2891C24.2208 17.2922 23.3076 17.6771 22.5681 18.4439C21.8394 19.1995 21.4859 20.1395 21.5074 21.2641C21.5293 22.4112 21.9023 23.3605 22.6265 24.112C23.3507 24.8635 24.2396 25.2378 25.2932 25.2348C26.1138 25.2326 26.8577 24.9831 27.5247 24.4864C28.1698 24.001 28.5956 23.3587 28.8022 22.5596L25.0426 22.5701L25.0074 20.7314L31.0128 20.7147C31.0406 21.007 31.0552 21.1925 31.0567 21.2713C31.0668 22.9582 30.5335 24.3599 29.4568 25.4763C28.3804 26.6039 27.0215 27.17 25.3801 27.1746C23.7166 27.1793 22.3196 26.6208 21.1891 25.4993Z" fill="#FFB800"/>
</svg>
