<svg width="42" height="42" viewBox="0 0 42 42" fill="none" xmlns="http://www.w3.org/2000/svg">
<rect width="42" height="42" rx="21" fill="#419FD9"/>
<rect width="42" height="42" rx="21" fill="url(#paint0_linear_1_515)"/>
<path d="M9.43894 20.5371C15.5458 17.8205 19.6181 16.0295 21.6556 15.1642C27.4732 12.6936 28.6821 12.2645 29.47 12.2501C29.6433 12.2472 30.0307 12.291 30.2817 12.499C30.4936 12.6745 30.552 12.9117 30.5799 13.0782C30.6078 13.2447 30.6425 13.6239 30.6149 13.9202C30.2996 17.3023 28.9355 25.5096 28.2415 29.2976C27.9479 30.9004 27.3697 31.4379 26.8099 31.4905C25.5934 31.6048 24.6696 30.6696 23.4914 29.881C21.6476 28.647 20.606 27.8789 18.8164 26.6747C16.7481 25.2831 18.0889 24.5182 19.2676 23.2683C19.576 22.9411 24.936 17.9633 25.0398 17.5118C25.0528 17.4553 25.0648 17.2448 24.9423 17.1336C24.8198 17.0225 24.639 17.0605 24.5086 17.0907C24.3237 17.1336 21.3783 19.1213 15.6724 23.0539C14.8364 23.64 14.0791 23.9256 13.4006 23.9106C12.6527 23.8941 11.2139 23.4788 10.1443 23.1238C8.83239 22.6884 7.78972 22.4582 7.88051 21.7188C7.9278 21.3336 8.44728 20.9397 9.43894 20.5371Z" fill="white"/>
<defs>
<linearGradient id="paint0_linear_1_515" x1="21" y1="0" x2="21" y2="41.6884" gradientUnits="userSpaceOnUse">
<stop stop-color="#2AABEE"/>
<stop offset="1" stop-color="#229ED9"/>
</linearGradient>
</defs>
</svg>
