<svg width="42" height="42" viewBox="0 0 42 42" fill="none" xmlns="http://www.w3.org/2000/svg">
<rect width="42" height="42" rx="21" fill="#675DA9"/>
<path d="M31.2847 10.6615C30.5901 10.0228 27.7779 7.97809 21.5092 7.95008C21.5092 7.95008 14.1201 7.50192 10.5179 10.8071C8.51241 12.8127 7.80655 15.7425 7.73373 19.3839C7.6609 23.0196 7.56567 29.8373 14.1369 31.686H14.1425L14.1369 34.5038C14.1369 34.5038 14.0977 35.6466 14.8483 35.8763C15.7559 36.1564 16.2937 35.2881 17.162 34.3525C17.6381 33.8372 18.2936 33.0865 18.7922 32.5095C23.285 32.8848 26.7415 32.0221 27.1336 31.8932C28.0412 31.5963 33.1782 30.9409 34.0129 24.1232C34.8757 17.1094 33.5928 12.667 31.2847 10.6615ZM32.0466 23.6302C31.3408 29.3219 27.1784 29.6804 26.411 29.9269C26.086 30.0334 23.0497 30.7896 19.2291 30.5375C19.2291 30.5375 16.3833 33.9716 15.4982 34.8623C15.3581 35.0024 15.1957 35.0584 15.0892 35.0304C14.938 34.9912 14.8931 34.8119 14.8987 34.5486C14.8987 34.1677 14.9212 29.8597 14.9212 29.8597C14.9156 29.8597 14.9156 29.8597 14.9212 29.8597C9.35832 28.3191 9.68324 22.5154 9.74486 19.4791C9.80649 16.4428 10.3779 13.9499 12.0753 12.2749C15.1172 9.51866 21.3971 9.92761 21.3971 9.92761C26.6967 9.95002 29.2344 11.5466 29.8226 12.0788C31.7777 13.7594 32.7749 17.7649 32.0466 23.6302Z" fill="white"/>
<path d="M24.0922 19.5856C23.9073 19.5856 23.7505 19.4399 23.7393 19.2494C23.6776 18.045 23.1118 17.4568 21.9578 17.3951C21.7617 17.3839 21.6105 17.2159 21.6217 17.0198C21.6329 16.8237 21.8009 16.6725 21.997 16.6837C23.5208 16.7677 24.3723 17.6416 24.4507 19.2102C24.4619 19.4063 24.3107 19.5743 24.1146 19.5799C24.1034 19.5856 24.0978 19.5856 24.0922 19.5856Z" fill="white"/>
<path d="M25.9067 20.1907H25.9011C25.705 20.1851 25.5482 20.0227 25.5538 19.8266C25.5818 18.6166 25.2345 17.6362 24.495 16.8295C23.7611 16.0228 22.7472 15.5859 21.4083 15.4906C21.2122 15.4738 21.0665 15.3058 21.0834 15.1097C21.1002 14.9136 21.2682 14.768 21.4643 14.7848C22.9768 14.8968 24.1701 15.4234 25.0216 16.3533C25.8787 17.2889 26.2933 18.4597 26.2652 19.8434C26.2596 20.0395 26.0972 20.1907 25.9067 20.1907Z" fill="white"/>
<path d="M27.7667 20.9187C27.5707 20.9187 27.4138 20.7619 27.4138 20.5658C27.397 18.3978 26.7752 16.7452 25.5091 15.5071C24.2598 14.2859 22.6745 13.6641 20.809 13.6473C20.6129 13.6473 20.4561 13.4848 20.4561 13.2887C20.4561 13.0926 20.6185 12.9358 20.809 12.9358C22.8649 12.9526 24.6128 13.6416 25.9965 14.9973C27.3858 16.353 28.0973 18.2241 28.1197 20.5546C28.1253 20.7563 27.9684 20.9187 27.7667 20.9187C27.7723 20.9187 27.7723 20.9187 27.7667 20.9187Z" fill="white"/>
<path d="M22.0413 23.9719C22.0413 23.9719 22.5399 24.0167 22.8088 23.6862L23.3298 23.0307C23.5819 22.7058 24.1925 22.4985 24.7863 22.829C25.1169 23.0139 25.7163 23.3836 26.086 23.6581C26.4838 23.9495 27.2904 24.6217 27.2961 24.6273C27.6826 24.9522 27.7722 25.4284 27.5089 25.9382C27.5089 25.9382 27.5089 25.9438 27.5089 25.9494C27.24 26.4256 26.8759 26.8737 26.4221 27.2883C26.4165 27.2883 26.4165 27.2939 26.4109 27.2939C26.0356 27.6076 25.6659 27.7869 25.3073 27.8261C25.2625 27.8373 25.2121 27.8373 25.1449 27.8373C24.988 27.8373 24.8312 27.8149 24.6743 27.7644L24.6631 27.7476C24.1029 27.5908 23.1729 27.1986 21.6268 26.3415C20.6184 25.7869 19.7837 25.2211 19.0722 24.6553C18.6969 24.3584 18.316 24.0279 17.9238 23.6357C17.9126 23.6245 17.8958 23.6077 17.8846 23.5965C17.8734 23.5853 17.8566 23.5685 17.8454 23.5573C17.8342 23.5461 17.8174 23.5293 17.8062 23.5181C17.795 23.5069 17.7782 23.4901 17.767 23.4789C17.3804 23.0867 17.0443 22.7058 16.7474 22.3305C16.1816 21.6246 15.6158 20.7843 15.0612 19.7759C14.2041 18.2242 13.8119 17.2942 13.6551 16.7396L13.6383 16.7284C13.5878 16.5716 13.5654 16.4147 13.5654 16.2578C13.5654 16.1906 13.5654 16.1402 13.5766 16.0954C13.6215 15.7312 13.8007 15.3671 14.1088 14.9918C14.1088 14.9862 14.1144 14.9862 14.1144 14.9806C14.529 14.5212 14.9771 14.1627 15.4533 13.8938C15.4533 13.8938 15.4589 13.8938 15.4645 13.8938C15.9687 13.6305 16.4449 13.7201 16.7754 14.1067C16.7754 14.1067 17.4533 14.9189 17.7446 15.3167C18.0191 15.692 18.3888 16.2858 18.5737 16.6164C18.9042 17.2102 18.6969 17.8208 18.372 18.0729L17.7165 18.5939C17.386 18.8628 17.4308 19.3614 17.4308 19.3614C17.4308 19.3614 18.4 23.0475 22.0413 23.9719Z" fill="white"/>
</svg>
