<svg width="43" height="43" viewBox="0 0 43 43" fill="none" xmlns="http://www.w3.org/2000/svg">
<rect width="43" height="43" rx="5" fill="white" fill-opacity="0.91"/>
<path d="M24.4562 19.3502C24.4562 19.564 24.3712 19.7691 24.22 19.9203C24.0688 20.0715 23.8637 20.1564 23.6499 20.1564H20.1562V23.6502C20.1562 23.864 20.0712 24.0691 19.92 24.2203C19.7688 24.3715 19.5637 24.4564 19.3499 24.4564C19.1361 24.4564 18.931 24.3715 18.7798 24.2203C18.6286 24.0691 18.5437 23.864 18.5437 23.6502V20.1564H15.0499C14.8361 20.1564 14.631 20.0715 14.4798 19.9203C14.3286 19.7691 14.2437 19.564 14.2437 19.3502C14.2437 19.1363 14.3286 18.9313 14.4798 18.7801C14.631 18.6289 14.8361 18.5439 15.0499 18.5439H18.5437V15.0502C18.5437 14.8363 18.6286 14.6313 18.7798 14.4801C18.931 14.3289 19.1361 14.2439 19.3499 14.2439C19.5637 14.2439 19.7688 14.3289 19.92 14.4801C20.0712 14.6313 20.1562 14.8363 20.1562 15.0502V18.5439H23.6499C23.8637 18.5439 24.0688 18.6289 24.22 18.7801C24.3712 18.9313 24.4562 19.1363 24.4562 19.3502ZM34.9697 34.9699C34.8185 35.1209 34.6136 35.2057 34.3999 35.2057C34.1863 35.2057 33.9813 35.1209 33.8302 34.9699L26.926 28.0657C24.6618 30.0345 21.7217 31.0474 18.7253 30.8907C15.7289 30.734 12.9105 29.4201 10.864 27.2258C8.81751 25.0316 7.70293 22.1285 7.75518 19.1285C7.80742 16.1285 9.02243 13.266 11.1441 11.1443C13.2657 9.02267 16.1282 7.80767 19.1282 7.75542C22.1282 7.70317 25.0313 8.81776 27.2256 10.8642C29.4198 12.9107 30.7338 15.7292 30.8904 18.7255C31.0471 21.7219 30.0343 24.6621 28.0655 26.9262L34.9697 33.8304C35.1207 33.9816 35.2055 34.1865 35.2055 34.4002C35.2055 34.6138 35.1207 34.8187 34.9697 34.9699ZM19.3499 29.2939C21.3166 29.2939 23.2391 28.7107 24.8744 27.6181C26.5096 26.5255 27.7841 24.9725 28.5367 23.1555C29.2894 21.3385 29.4863 19.3391 29.1026 17.4102C28.7189 15.4813 27.7719 13.7095 26.3812 12.3189C24.9906 10.9282 23.2187 9.98116 21.2898 9.59748C19.3609 9.2138 17.3616 9.41072 15.5446 10.1633C13.7276 10.916 12.1746 12.1905 11.082 13.8257C9.98936 15.461 9.40617 17.3835 9.40617 19.3502C9.40937 21.9864 10.458 24.5138 12.3222 26.3779C14.1863 28.242 16.7137 29.2907 19.3499 29.2939Z" fill="#C49E5E"/>
</svg>
