<svg width="97" height="97" viewBox="0 0 97 97" fill="none" xmlns="http://www.w3.org/2000/svg">
<path d="M4.20312 95.2494C6.43732 95.2653 8.68296 95.4312 10.8968 95.2335C11.9303 95.1414 12.8965 95.3034 13.8963 95.3034C37.1943 95.3034 60.4922 95.3034 83.7902 95.3034C84.3336 95.3034 84.886 95.3352 85.39 95.0873C85.5133 95.011 85.6468 94.985 85.7898 95.0091C87.8378 95.5933 89.9232 95.2094 91.989 95.2513" stroke="#C49E5E" stroke-width="2" stroke-linecap="round" stroke-linejoin="round"/>
<path d="M31.5019 55.4031C31.8788 55.672 32.2907 55.8671 32.7382 55.9873C33.1856 56.108 33.6401 56.1462 34.1016 56.1029C35.533 55.9752 36.979 56.3032 38.413 55.8328C38.9151 55.6669 39.4929 56.1373 40.1005 56.115C41.4665 56.0648 42.8369 56.0432 44.2003 56.115C46.102 56.2129 47.986 55.8773 49.9037 56.0629C51.7705 56.2294 53.6367 56.2294 55.5035 56.0629C57.847 55.8633 60.1708 56.1792 62.5029 56.1093C64.8007 56.0387 67.1022 56.089 69.4019 56.0947C69.946 56.0947 70.4863 56.0947 71.0018 55.8951C71.0996 55.857 71.202 55.7851 71.2999 55.801C75.2877 56.4589 79.2991 55.9307 83.2991 56.087C84.4648 56.1328 85.6343 56.0527 86.7988 56.1067C88.0236 56.1627 89.2167 56.3883 90.3779 56.783C90.5782 57.5051 91.1178 58.1089 91.6943 58.6988C94.0378 61.0983 94.8216 64.0323 93.9476 67.1799C93.0158 70.5416 90.7123 72.7015 87.2062 73.5252C86.1829 73.7655 85.2066 73.7153 84.2067 73.7153C60.6755 73.6873 37.1443 73.7 13.6131 73.7534C11.8657 73.7534 10.1979 73.6854 8.61391 73.0695C2.63656 70.7336 1.06023 63.232 5.6138 58.613C6.16615 58.053 6.71405 57.5388 6.99563 56.7951" stroke="#C49E5E" stroke-width="2" stroke-linecap="round" stroke-linejoin="round"/>
<path d="M85.3461 89.6998H12.5029" stroke="#C49E5E" stroke-width="2" stroke-linecap="round" stroke-linejoin="round"/>
<path d="M71.2973 55.7527C71.2973 51.8691 71.2973 47.9861 71.2973 44.1044C71.2973 42.7041 71.0971 42.5045 69.6974 42.5045C66.2308 42.5045 62.7648 42.5045 59.2981 42.5045C57.8985 42.5045 57.6982 42.7041 57.6982 44.1044C57.6982 47.988 57.6982 51.871 57.6982 55.7527" stroke="#C49E5E" stroke-width="2" stroke-linecap="round" stroke-linejoin="round"/>
<path d="M37.701 9.35702C37.8148 6.30733 36.7012 3.90787 34.1015 2.19996C30.1454 -0.413701 24.428 1.36984 22.8021 6.30987C22.4646 7.33766 22.3203 8.39533 22.7061 9.46762C23.2045 9.70344 23.746 9.71106 24.306 9.71106C28.1394 9.70344 31.9722 9.70344 35.805 9.71106C36.3491 9.71106 36.9008 9.74348 37.4048 9.49559C37.5288 9.41931 37.6616 9.39325 37.8053 9.41741C39.8526 10.0015 41.9387 9.61699 44.0044 9.65958" stroke="#C49E5E" stroke-width="2" stroke-linecap="round" stroke-linejoin="round"/>
<path d="M44.1994 42.1041C44.0913 38.9908 43.6457 35.9049 43.4296 32.8031C43.3731 31.7893 43.2078 30.7933 42.9345 29.815C42.6612 28.8368 42.2855 27.8999 41.8075 27.0037C41.592 26.588 41.3461 26.1914 41.0696 25.8138C40.7924 25.4356 40.4886 25.0816 40.1568 24.7511C39.8257 24.4205 39.4704 24.1174 39.0922 23.8415C38.714 23.5656 38.3167 23.3203 37.9004 23.1061C36.9819 22.6319 36.0584 22.4419 35.3102 23.3177C34.3104 24.4936 32.8745 24.2979 31.5989 24.6061C30.0149 24.9881 28.471 24.336 26.8991 24.4059C26.6232 24.4218 26.5514 24.2057 26.4052 24.0919C24.1812 22.3383 23.3918 22.3904 20.9878 23.9801C17.7138 26.1558 17.0718 29.3275 17.3019 32.9054C17.3858 34.237 17.5263 35.575 17.4799 36.9047C17.4258 38.4366 18.1441 39.7625 18.406 41.2047C18.42 41.2746 18.4536 41.3744 18.5058 41.4043C20.52 42.3825 20.8677 44.5023 21.7938 46.214C22.4816 47.484 23.7216 48.1596 24.7056 49.1073C26.8133 51.1337 29.2808 52.7774 31.105 55.1069" stroke="#C49E5E" stroke-width="2" stroke-linecap="round" stroke-linejoin="round"/>
<path d="M13.8527 23.2059C13.8762 23.2707 13.8921 23.3374 13.9004 23.4061C13.9067 23.6591 13.8463 23.8949 13.7186 24.1142C12.2789 26.6617 11.7888 29.3917 12.0806 32.313C12.2446 33.9351 12.1028 35.5769 12.181 37.213C12.3247 40.1743 12.3367 43.1439 12.4029 46.1097" stroke="#C49E5E" stroke-width="2" stroke-linecap="round" stroke-linejoin="round"/>
<path d="M23.252 12.2072C23.3022 14.0606 23.5024 15.881 24.5022 17.5063C25.9018 19.7742 27.8157 21.1903 30.5997 21.1064C33.2172 21.0264 34.927 19.5981 36.2192 17.4224C37.1866 15.787 37.5248 14.0632 37.4491 12.211" stroke="#C49E5E" stroke-width="2" stroke-linecap="round" stroke-linejoin="round"/>
<path d="M23.2021 31.2554C23.8676 33.5391 24.7098 35.7886 25.156 38.1124C25.6639 40.7566 27.0057 42.8382 28.6933 44.8099C30.2931 46.6799 31.8294 48.6096 33.407 50.4993C33.6867 50.8337 33.8189 51.2278 34.007 51.6034" stroke="#C49E5E" stroke-width="2" stroke-linecap="round" stroke-linejoin="round"/>
<path d="M34.2013 24.4059C34.8312 27.3139 34.7854 30.1233 32.6014 31.509C31.4154 32.2634 29.56 32.299 28.4019 31.509C27.0461 30.5733 26.4022 29.2773 26.4963 27.6139C26.5561 26.5797 26.3717 25.5297 26.6959 24.514" stroke="#C49E5E" stroke-width="2" stroke-linecap="round" stroke-linejoin="round"/>
<path d="M33.8008 42.4543C35.3047 42.4302 36.8142 42.7403 38.3079 42.2261C38.8203 42.0481 39.3243 42.5744 39.9078 42.5121C41.3081 42.3583 42.7439 42.802 44.108 42.2045C45.1574 42.7422 46.3193 42.3501 47.4094 42.6043C48.1715 42.7785 48.1073 43.3543 48.1073 43.9099V55.7591" stroke="#C49E5E" stroke-width="2" stroke-linecap="round" stroke-linejoin="round"/>
<path d="M85.5965 74.1011C85.6302 74.4672 85.6925 74.8352 85.6925 75.2013C85.6925 79.4009 85.6925 83.6004 85.6925 87.7999C85.6925 88.344 85.7242 88.8957 85.4764 89.3998C85.3982 89.5231 85.3728 89.6566 85.3982 89.7996C85.9982 91.4897 85.5501 93.2376 85.6906 94.9513" stroke="#C49E5E" stroke-width="2" stroke-linecap="round" stroke-linejoin="round"/>
<path d="M12.1027 74.1011C12.1027 78.6674 12.1027 83.2337 12.1027 87.7999C12.1027 88.344 12.0823 88.89 12.3124 89.3998C12.3728 89.5358 12.4669 89.6401 12.4065 89.7996C11.7887 91.4859 12.2444 93.2357 12.1046 94.9494" stroke="#C49E5E" stroke-width="2" stroke-linecap="round" stroke-linejoin="round"/>
<path d="M18.4031 41.5041C18.1456 41.8867 17.9568 42.3011 17.8367 42.7461C17.7172 43.1916 17.6721 43.6442 17.7026 44.1044C17.8272 47.9696 17.9028 51.8373 18.0128 55.7031" stroke="#C49E5E" stroke-width="2" stroke-linecap="round" stroke-linejoin="round"/>
<path d="M89.5961 51.2532C85.1302 51.3377 80.6638 51.3377 76.1973 51.2532" stroke="#C49E5E" stroke-width="2" stroke-linecap="round" stroke-linejoin="round"/>
<path d="M38.5002 55.7527C38.6483 54.1675 38.1004 52.9414 36.7008 52.0973C35.9145 51.6193 35.017 51.8437 34.1952 51.6117C33.9949 51.5576 33.9091 51.7731 33.7947 51.9034C33.1013 52.6916 32.383 53.4651 31.9012 54.4052C31.265 55.6428 30.1914 56.089 28.9011 56.0972C25.7675 56.115 22.6301 56.2167 19.5022 56.0527C18.0543 55.9752 16.6362 56.1767 15.2003 56.1169C13.7645 56.0572 12.3331 56.0832 10.901 56.1169C10.2292 56.1322 9.56241 56.1989 8.90137 56.3172C7.85324 56.4989 6.82544 56.8987 5.78938 56.225C5.56374 56.0788 5.18936 56.1188 4.89952 56.1131C3.59968 56.0871 2.29984 56.075 1 56.0591" stroke="#C49E5E" stroke-width="2" stroke-linecap="round" stroke-linejoin="round"/>
<path d="M38.4502 30.6051C38.4661 34.4557 38.4826 38.305 38.4998 42.1543" stroke="#C49E5E" stroke-width="2" stroke-linecap="round" stroke-linejoin="round"/>
<path d="M12.7031 49.8033V50.9036" stroke="#C49E5E" stroke-width="2" stroke-linecap="round" stroke-linejoin="round"/>
<path d="M12.6037 60.9025C10.3497 61.2006 9.15542 62.7966 8.90562 64.502C8.7054 65.9341 9.6493 67.736 11.1055 68.4899C12.3615 69.1357 14.1793 68.9437 15.2173 68.1238C16.603 67.028 17.2329 65.4523 16.6932 63.7043C16.1707 62.0066 14.7349 61.0226 12.6933 60.9044" stroke="#C49E5E" stroke-width="2" stroke-linecap="round" stroke-linejoin="round"/>
<path d="M30.2013 60.9025C27.9474 61.2006 26.7531 62.7966 26.5033 64.502C26.303 65.9341 27.2476 67.736 28.7031 68.4899C29.9591 69.1357 31.777 68.9437 32.815 68.1238C34.2006 67.028 34.8305 65.4523 34.2909 63.7043C33.7684 62.0066 32.3325 61.0226 30.2909 60.9044" stroke="#C49E5E" stroke-width="2" stroke-linecap="round" stroke-linejoin="round"/>
<path d="M48.5991 60.9025C46.3452 61.2006 45.1515 62.7966 44.9017 64.502C44.7015 65.9341 45.6454 67.736 47.101 68.4899C48.3569 69.1357 50.1748 68.9437 51.2128 68.1238C52.5991 67.028 53.229 65.4523 52.6887 63.7043C52.1668 62.0066 50.731 61.0226 48.6894 60.9044" stroke="#C49E5E" stroke-width="2" stroke-linecap="round" stroke-linejoin="round"/>
<path d="M66.1981 60.9025C63.9442 61.2006 62.7505 62.7966 62.5007 64.502C62.2903 65.9341 63.2444 67.736 64.7006 68.4899C65.9559 69.1357 67.7738 68.9437 68.8118 68.1238C70.198 67.028 70.8279 65.4523 70.2877 63.7043C69.7658 62.0066 68.33 61.0226 66.2883 60.9044" stroke="#C49E5E" stroke-width="2" stroke-linecap="round" stroke-linejoin="round"/>
<path d="M83.7967 60.9025C81.5428 61.2006 80.3491 62.7966 80.0993 64.502C79.8889 65.9341 80.843 67.736 82.2992 68.4899C83.5546 69.1357 85.3724 68.9437 86.4104 68.1238C87.7967 67.028 88.4266 65.4523 87.8863 63.7043C87.3644 62.0066 85.9286 61.0226 83.887 60.9044" stroke="#C49E5E" stroke-width="2" stroke-linecap="round" stroke-linejoin="round"/>
</svg>
