<svg width="96" height="89" viewBox="0 0 96 89" fill="none" xmlns="http://www.w3.org/2000/svg">
<mask id="mask0_1_610" style="mask-type:luminance" maskUnits="userSpaceOnUse" x="0" y="0" width="96" height="89">
<path d="M0 0H96V88.6991H0V0Z" fill="white"/>
</mask>
<g mask="url(#mask0_1_610)">
<path d="M82.5921 46.9298L67.594 22.2555V7.58004C67.594 2.58025 57.595 0 48.0801 0C38.5652 0 28.5662 2.58025 28.5662 7.4187V21.9328L13.4068 46.9298C6.14943 47.8973 0.0214844 50.3168 0.0214844 54.1872V80.9584C0.0214844 85.9576 10.0198 88.5378 19.5353 88.5378C29.0503 88.5378 39.0492 85.9576 39.0492 80.9584V72.2496H56.9503V81.1191C56.9503 86.1189 66.9486 88.6991 76.4641 88.6991C85.979 88.6991 95.9774 86.1189 95.9774 81.1191V54.1872C96.1387 50.3168 89.8494 47.7365 82.5921 46.9298ZM93.5585 72.2496C93.5585 74.3458 87.1078 77.4101 76.4641 77.4101C66.1425 77.4101 59.6919 74.5071 59.3692 72.4109V66.7664C62.9169 69.1853 69.8515 70.4754 76.4641 70.4754C83.0761 70.4754 90.0108 69.1853 93.5585 66.605V72.2496ZM93.5585 62.896C93.5585 64.9922 87.1078 68.0565 76.4641 68.0565C66.1425 68.0565 59.6919 65.1536 59.3692 63.0567V57.8962C62.9169 60.3151 69.8515 61.6059 76.4641 61.6059C83.0761 61.6059 90.0108 60.3151 93.5585 57.7349V62.896ZM93.5585 54.0258C93.5585 56.1221 87.1078 59.1863 76.4641 59.1863C65.8198 59.1863 59.3692 56.2834 59.3692 54.0258C59.3692 51.9296 65.8198 48.8653 76.4641 48.8653C87.1078 48.8653 93.5585 51.9296 93.5585 54.0258ZM48.0801 14.9981C54.6921 14.9981 61.6267 13.708 65.175 11.1277V16.1269C65.175 18.2237 58.7238 21.288 48.0801 21.288C37.7585 21.288 31.3078 18.3851 30.9851 16.2882V11.2891C34.5335 13.708 41.4681 14.9981 48.0801 14.9981ZM48.0801 23.8683C54.6921 23.8683 61.6267 22.5781 65.175 19.9979V25.6418C65.175 27.7387 58.7238 30.8029 48.0801 30.8029C37.7585 30.8029 31.3078 27.9 30.9851 25.8031V19.9979C34.5335 22.5781 41.4681 23.8683 48.0801 23.8683ZM30.9851 34.3506V29.5128C34.5335 31.9317 41.4681 33.2218 48.0801 33.2218C54.6921 33.2218 61.6267 31.9317 65.175 29.3515V34.1893C65.175 36.2861 58.7238 39.3504 48.0801 39.3504C37.5977 39.5111 31.1465 36.4475 30.9851 34.3506ZM48.0801 2.25756C58.7238 2.25756 65.175 5.32185 65.175 7.4187C65.175 9.51491 58.7238 12.5792 48.0801 12.5792C37.4364 12.5792 30.9851 9.67626 30.9851 7.4187C30.9851 5.32185 37.4364 2.25756 48.0801 2.25756ZM19.6961 48.8653C30.3404 48.8653 36.791 51.9296 36.791 54.0258C36.791 56.1221 30.3404 59.1863 19.6961 59.1863C9.05237 59.1863 2.60174 56.2834 2.60174 54.0258C2.60174 51.9296 9.05237 48.8653 19.6961 48.8653ZM19.6961 61.6059C26.3087 61.6059 33.2433 60.3151 36.791 57.7349V62.7347C36.791 64.8309 30.3404 67.8952 19.6961 67.8952C9.37506 67.8952 2.92443 64.9922 2.60174 62.896V57.7349C6.14943 60.3151 12.9227 61.6059 19.6961 61.6059ZM2.60174 66.605C6.14943 69.0239 13.0841 70.3141 19.6961 70.3141C26.3087 70.3141 33.2433 69.0239 36.791 66.4437V72.0882C36.791 74.1844 30.3404 77.2487 19.6961 77.2487C9.37506 77.2487 2.92443 74.3458 2.60174 72.2496V66.605ZM19.6961 86.1189C9.21371 86.1189 2.76308 83.216 2.60174 80.9584V76.1199C6.14943 78.5389 13.0841 79.829 19.6961 79.829C26.3087 79.829 33.2433 78.5389 36.791 75.9586V80.797C36.791 83.0546 30.179 86.1189 19.6961 86.1189ZM39.2099 54.5099C39.0492 54.3485 39.2099 54.3485 39.2099 54.5099V54.1872C39.2099 49.1874 29.2116 46.6071 19.6961 46.6071C18.5673 46.6071 17.5998 46.6071 16.4711 46.7685L28.5662 26.7712V34.3506C28.5662 39.3504 38.5652 41.9307 48.0801 41.9307C57.595 41.9307 67.594 39.3504 67.594 34.3506V26.9326L79.6891 46.7685C78.7217 46.7685 77.5929 46.6071 76.6248 46.6071C67.1099 46.6071 57.111 49.1874 57.111 54.1872V69.6693H39.2099V54.5099ZM76.4641 86.1189C65.9811 86.1189 59.5305 83.216 59.3692 80.9584V76.1199C62.9169 78.5389 69.8515 79.829 76.4641 79.829C83.0761 79.829 90.0108 78.5389 93.5585 75.9586V80.797C93.5585 83.0546 87.1078 86.1189 76.4641 86.1189Z" fill="#C49E5E"/>
</g>
</svg>
