<svg width="77" height="97" viewBox="0 0 77 97" fill="none" xmlns="http://www.w3.org/2000/svg">
<mask id="mask0_1_600" style="mask-type:luminance" maskUnits="userSpaceOnUse" x="0" y="0" width="77" height="97">
<path d="M0 0H77V96.4006H0V0Z" fill="white"/>
</mask>
<g mask="url(#mask0_1_600)">
<path d="M76.0024 19.5625L39.3883 0.306259C38.8386 0.0169321 38.1802 0.0169321 37.6304 0.306259L1.01638 19.5625C0.396302 19.8889 0.0078125 20.5316 0.0078125 21.232V44.2859C0.0078125 66.6865 18.7783 83.5284 37.4622 95.9757C38.0961 96.3981 38.922 96.3981 39.5565 95.9757C58.2022 83.5541 77.011 66.7085 77.011 44.2859V21.232C77.011 20.5316 76.6225 19.8889 76.0024 19.5625ZM73.2353 44.2859C73.2353 65.9422 53.7305 81.8734 38.5097 92.1348C23.2889 81.8734 3.7835 65.9422 3.7835 44.2859V22.3705L38.5097 4.10706L73.2353 22.3705V44.2859Z" fill="#C49E5E"/>
</g>
<path d="M37.6306 11.2273L9.66872 25.9334C9.04865 26.2591 8.66016 26.9018 8.66016 27.6022V45.2085C8.66016 62.5211 23.1083 75.4919 37.4624 85.0547C38.0962 85.4771 38.9222 85.4771 39.5567 85.0547C53.9151 75.4893 68.3589 62.5192 68.3589 45.2085V27.6022C68.3589 26.9018 67.971 26.2591 67.3503 25.9334L39.3885 11.2273C38.8387 10.938 38.1803 10.938 37.6306 11.2273ZM64.5838 28.7413V45.2085C64.5838 57.6828 56.2912 69.1436 38.5098 81.2113C20.7278 69.1436 12.4352 57.6828 12.4352 45.2085V28.7413L38.5098 15.0281L64.5838 28.7413Z" fill="#C49E5E"/>
<path d="M19.6318 48.1909C19.6318 58.5923 28.0995 67.0543 38.509 67.0543C48.9179 67.0543 57.3862 58.5923 57.3862 48.1909C57.3862 37.7896 48.9179 29.3275 38.509 29.3275C28.0995 29.3275 19.6318 37.7896 19.6318 48.1909ZM53.6105 48.1909C53.6105 56.5118 46.8361 63.2818 38.509 63.2818C30.1819 63.2818 23.4069 56.5118 23.4069 48.1909C23.4069 39.8701 30.1819 33.1001 38.509 33.1001C46.8361 33.1001 53.6105 39.8701 53.6105 48.1909Z" fill="#C49E5E"/>
<path d="M32.7644 47.5646C32.027 46.8277 30.832 46.8277 30.0946 47.5646C29.3578 48.3007 29.3578 49.4957 30.0946 50.2325L34.3423 54.4764C35.0797 55.2132 36.2747 55.2132 37.0121 54.4764L46.9227 44.5734C47.6595 43.8366 47.6595 42.6422 46.9227 41.9054C46.1852 41.1686 44.9903 41.1686 44.2528 41.9054L35.6772 50.4748L32.7644 47.5646Z" fill="#C49E5E"/>
</svg>
